<?xml version="1.0" encoding="utf-8"?>
<!-- Generator: Adobe Illustrator 22.0.1, SVG Export Plug-In . SVG Version: 6.00 Build 0)  -->
<svg version="1.1" id="Layer_1" xmlns="http://www.w3.org/2000/svg" xmlns:xlink="http://www.w3.org/1999/xlink" x="0px" y="0px"
	 viewBox="0 0 200 200" style="enable-background:new 0 0 200 200;" xml:space="preserve">
<g>
	<path d="M99.8,133.6c-5.2-7.7-10.3-14.9-15.2-22.4c-3.5-5.3-6.3-11-8.4-17c-4.3-12.2,3.6-28.7,18.6-31.9c13.7-2.9,27,6.2,29.8,20
		c1.3,6.5-0.4,12.2-3.1,17.9c-4.7,10-11,19.1-17.5,27.9C102.7,129.8,101.4,131.4,99.8,133.6z M100,128.8c0.3-0.6,0.3-0.8,0.5-1
		c7.1-9.4,13.8-19.1,18.7-29.8c2.3-5,3.5-10.1,2.2-15.8c-2.7-11.2-13.8-19-24.8-17.1c-13.6,2.3-22,17.1-17.1,29.5
		c2.9,7.3,6.8,14,11.1,20.5C93.5,119.7,96.7,124,100,128.8z"/>
	<path d="M91.1,125.4c-2.9,0.7-5.3,1.2-7.6,1.8c-0.8,0.2-1.5,0.5-2.2,0.9c-2.2,1.2-2.2,2.8,0,3.8c2,0.9,4.2,1.6,6.4,2
		c9.5,1.5,18.9,1.6,28.3-0.8c1.2-0.3,2.4-0.9,3.4-1.5c1.3-0.8,1.4-2.1,0-2.9c-1.6-0.9-3.4-1.6-5.2-2.1c-1.5-0.5-3.2-0.6-4.7-0.9
		c1-2.7,1.5-3,4.1-2.2c2.4,0.7,4.9,1.5,7,2.8c4,2.3,3.9,5.3-0.1,7.8c-3.4,2.1-7.1,2.9-11,3.5c-8.4,1.2-16.7,1.1-24.9-1.3
		c-2.2-0.6-4.3-1.7-6.2-2.9c-2.6-1.7-2.6-4.3-0.1-6.3c2.9-2.3,6.3-3.3,9.9-3.8C89,123,90,124.5,91.1,125.4z"/>
	<path d="M100,102.3c-7.9,0-14-6.4-14.1-14.6c0-8,6.3-14.6,14-14.6c7.8,0,14.1,6.6,14.1,14.7C114.1,95.9,107.9,102.3,100,102.3z
		 M111,87.9c0-6.5-4.9-11.7-11-11.6c-5.9,0.1-10.9,5.1-10.9,11c0,6.8,4.6,11.8,10.9,11.8C106.1,99.1,111,94.2,111,87.9z"/>
</g>
</svg>
