<?xml version="1.0" encoding="utf-8"?>
<!-- Generator: Adobe Illustrator 22.0.1, SVG Export Plug-In . SVG Version: 6.00 Build 0)  -->
<svg version="1.1" id="Layer_1" xmlns="http://www.w3.org/2000/svg" xmlns:xlink="http://www.w3.org/1999/xlink" x="0px" y="0px"
	 viewBox="0 0 100 125" style="enable-background:new 0 0 100 125;" xml:space="preserve">
<style type="text/css">
	.st0{font-family:'Avenir-Medium';}
	.st1{font-size:29px;}
</style>
<g>
	<path d="M90,28.5l-10.2,0V18.4c0-2.2-1.8-4-4-4H46.8c-1,0-1.9,0.3-2.9,0.6c-0.9,0.4-1.8,0.9-2.5,1.6L9.7,48.4
		c-0.8,0.8-1.2,1.8-1.2,2.8s0.4,2,1.2,2.8l30.4,30.4c0.8,0.8,1.8,1.2,2.8,1.2c1,0,2-0.4,2.8-1.2l31.8-31.8c0.7-0.7,1.2-1.6,1.6-2.5
		c0.4-0.9,0.6-1.9,0.6-2.9V31.5l10.2,0c0.8,0,1.5-0.7,1.5-1.5C91.5,29.2,90.8,28.5,90,28.5z M76.8,47.3c0,0.4-0.1,1.1-0.4,1.7
		c-0.3,0.6-0.6,1.2-0.9,1.5L43.6,82.3c-0.2,0.2-0.4,0.3-0.7,0.3c-0.3,0-0.5-0.1-0.7-0.3L11.8,51.9c-0.2-0.2-0.3-0.4-0.3-0.7
		c0-0.3,0.1-0.5,0.3-0.7l31.8-31.8c0.3-0.3,0.9-0.7,1.5-0.9c0.6-0.3,1.3-0.4,1.7-0.4h28.9c0.3,0,0.5,0.1,0.7,0.3
		c0.2,0.2,0.3,0.4,0.3,0.7v10.2l-5.3,0c-0.3-1.4-1-2.7-2-3.8c-1.5-1.5-3.4-2.2-5.3-2.2c-1.9,0-3.8,0.7-5.3,2.2
		c-1.5,1.5-2.2,3.4-2.2,5.3c0,1.9,0.7,3.8,2.2,5.3c1.5,1.5,3.4,2.2,5.3,2.2c1.9,0,3.8-0.7,5.3-2.2l-1.1-1.1l1.1,1.1
		c1.1-1.1,1.8-2.4,2-3.8l5.3,0V47.3z M64.1,31.5h4.2c-0.2,0.6-0.6,1.2-1,1.7c-0.9,0.9-2,1.3-3.2,1.3c-1.2,0-2.3-0.4-3.2-1.3
		c-0.9-0.9-1.3-2-1.3-3.2c0-1.2,0.4-2.3,1.3-3.2c0.9-0.9,2-1.3,3.2-1.3c1.2,0,2.3,0.4,3.2,1.3c0.5,0.5,0.8,1.1,1,1.7h-4.2
		c-0.8,0-1.5,0.7-1.5,1.5C62.6,30.9,63.3,31.5,64.1,31.5z"/>
	<text transform="matrix(0.7071 -0.7071 0.7071 0.7071 40.3985 66.5)" class="st0 st1">€</text>
</g>
</svg>
