<?xml version="1.0" encoding="utf-8"?>
<!-- Generator: Adobe Illustrator 22.0.1, SVG Export Plug-In . SVG Version: 6.00 Build 0)  -->
<svg version="1.1" id="Layer_1" xmlns="http://www.w3.org/2000/svg" xmlns:xlink="http://www.w3.org/1999/xlink" x="0px" y="0px"
	 viewBox="0 0 100 125" style="enable-background:new 0 0 100 125;" xml:space="preserve">
<g>
	<g>
		<path d="M70.5,10.7c-5,0-9.4,2.1-12.6,5.5c-3.1-3.4-7.6-5.5-12.6-5.5c-7.3,0-13.5,4.5-16,10.9c-9.4,0.1-17,7.7-17,17.1
			c0,5.6,2.7,10.6,6.9,13.7V81c0,4.5,3.7,8.2,8.2,8.2h29.2c4.5,0,8.2-3.7,8.2-8.2v-2.8h7.7c4.5,0,8.2-3.7,8.2-8.2V41.6
			c4.2-3.1,6.9-8.1,6.9-13.7C87.6,18.4,80,10.7,70.5,10.7z M61.1,81.1c0,2.4-2,4.4-4.4,4.4H27.5c-2.4,0-4.4-2-4.4-4.4V52.5
			c0-1.2-0.6-2.3-1.5-3.1c-3.4-2.6-5.4-6.4-5.4-10.7c0-7,5.4-12.7,12.2-13.3c0.4,0,0.7-0.1,1.1-0.1c0.9,0,1.8,0.1,2.7,0.3
			c2.7,0.6,5.1,1.9,7.1,4C40,30.5,41,31,42.1,31s2.1-0.4,2.8-1.2c2.6-2.8,6-4.3,9.8-4.3c7.3,0,13.3,6,13.3,13.3
			c0,4.2-2,8.1-5.4,10.7c-1,0.7-1.5,1.8-1.5,3.1v22v3.8V81.1z M78.4,38.5c-1,0.7-1.5,1.8-1.5,3.1v28.6c0,2.4-2,4.4-4.4,4.4h-7.7v-22
			c4.2-3.1,6.9-8.1,6.9-13.7c0-9.5-7.7-17.1-17.1-17.1c-5,0-9.4,2.1-12.6,5.5c-2.3-2.5-5.3-4.3-8.7-5.1c2.1-4.5,6.7-7.6,12-7.6
			c3.7,0,7.2,1.5,9.8,4.3c0.7,0.8,1.7,1.2,2.8,1.2s2.1-0.4,2.8-1.2c2.6-2.8,6-4.3,9.8-4.3c7.3,0,13.3,6,13.3,13.3
			C83.8,32.1,81.9,36,78.4,38.5z"/>
		<g>
			<path d="M33.5,62.2c-0.5,0-1-0.2-1.3-0.6c-0.7-0.7-0.7-1.9,0-2.7l16.5-16.5c0.7-0.7,1.9-0.7,2.7,0c0.7,0.7,0.7,1.9,0,2.7
				L34.8,61.6C34.5,62,34,62.2,33.5,62.2z"/>
		</g>
		<g>
			<path d="M33.5,76.7c-0.5,0-1-0.2-1.3-0.6c-0.7-0.7-0.7-1.9,0-2.7L48.7,57c0.7-0.7,1.9-0.7,2.7,0c0.7,0.7,0.7,1.9,0,2.7L34.8,76.2
				C34.5,76.6,34,76.7,33.5,76.7z"/>
		</g>
	</g>
</g>
</svg>
