<?xml version="1.0" encoding="utf-8"?>
<!-- Generator: Adobe Illustrator 22.0.1, SVG Export Plug-In . SVG Version: 6.00 Build 0)  -->
<svg version="1.1"
	 id="Layer_1" xmlns:cc="http://creativecommons.org/ns#" xmlns:dc="http://purl.org/dc/elements/1.1/" xmlns:inkscape="http://www.inkscape.org/namespaces/inkscape" xmlns:rdf="http://www.w3.org/1999/02/22-rdf-syntax-ns#" xmlns:sodipodi="http://sodipodi.sourceforge.net/DTD/sodipodi-0.dtd" xmlns:svg="http://www.w3.org/2000/svg"
	 xmlns="http://www.w3.org/2000/svg" xmlns:xlink="http://www.w3.org/1999/xlink" x="0px" y="0px" viewBox="0 0 100 125"
	 style="enable-background:new 0 0 100 125;" xml:space="preserve">
<g transform="translate(0,-952.36218)">
	<path d="M39,963.4c-15.4,0-28,12.6-28,28s12.6,28,28,28c6.8,0,13-2.4,17.8-6.4l28.8,27.8c0.7,0.8,2,0.9,2.8,0.2
		c0.8-0.7,0.9-2,0.2-2.8c-0.1-0.1-0.2-0.2-0.3-0.3l-28.7-27.7c4.5-5,7.3-11.6,7.3-18.8C67,975.9,54.4,963.4,39,963.4z M39,967.4
		c13.3,0,24,10.7,24,24s-10.7,24-24,24s-24-10.7-24-24S25.7,967.4,39,967.4z"/>
</g>
</svg>
