<?xml version="1.0" standalone="no"?>
<!DOCTYPE svg PUBLIC "-//W3C//DTD SVG 1.1//EN" "http://www.w3.org/Graphics/SVG/1.1/DTD/svg11.dtd" >
<svg xmlns="http://www.w3.org/2000/svg" xmlns:xlink="http://www.w3.org/1999/xlink" version="1.1">
<metadata></metadata>
<defs>
<font id="hk_novaextrabold_r" horiz-adv-x="1323" >
<font-face units-per-em="2048" ascent="1536" descent="-512" />
<missing-glyph horiz-adv-x="578" />
<glyph unicode="&#xfb01;" horiz-adv-x="1418" d="M39 883v135q0 20 10.5 30.5t29.5 10.5h82q41 0 41 41v60q0 202 88 299t270 97q80 0 159 -20q35 -9 35 -45v-159q0 -18 -9 -27.5t-25 -9.5q-8 0 -12 1q-33 7 -57 7q-57 0 -89 -32t-32 -98v-73q0 -20 10.5 -30.5t30.5 -10.5h147q20 0 30.5 -10.5t10.5 -30.5v-135 q0 -20 -10.5 -30.5t-30.5 -10.5h-147q-19 0 -30 -10.5t-11 -30.5v-760q0 -41 -41 -41h-246q-41 0 -41 41v760q0 20 -10.5 30.5t-30.5 10.5h-82q-40 0 -40 41zM919 1376q0 49 24.5 90.5t66.5 65.5t92 24q48 0 89.5 -24t66 -65.5t24.5 -90.5q0 -50 -24.5 -91.5t-66 -65.5 t-89.5 -24q-50 0 -92 24t-66.5 65.5t-24.5 91.5zM937 41v977q0 20 10.5 30.5t30.5 10.5h243q20 0 30.5 -10.5t10.5 -30.5v-977q0 -41 -41 -41h-243q-41 0 -41 41z" />
<glyph unicode="&#xfb02;" horiz-adv-x="1420" d="M39 883v135q0 20 10.5 30.5t29.5 10.5h82q41 0 41 41v60q0 202 88 299t270 97q80 0 159 -20q35 -9 35 -45v-159q0 -18 -9 -27.5t-25 -9.5q-8 0 -12 1q-33 7 -57 7q-57 0 -89 -32t-32 -98v-73q0 -20 10.5 -30.5t30.5 -10.5h147q20 0 30.5 -10.5t10.5 -30.5v-135 q0 -20 -10.5 -30.5t-30.5 -10.5h-147q-19 0 -30 -10.5t-11 -30.5v-760q0 -41 -41 -41h-246q-41 0 -41 41v760q0 20 -10.5 30.5t-30.5 10.5h-82q-40 0 -40 41zM937 41v1454q0 41 41 41h245q41 0 41 -41v-1454q0 -41 -41 -41h-245q-41 0 -41 41z" />
<glyph horiz-adv-x="0" />
<glyph horiz-adv-x="682" />
<glyph unicode=" "  horiz-adv-x="578" />
<glyph unicode="&#x09;" horiz-adv-x="578" />
<glyph unicode="&#xa0;" horiz-adv-x="578" />
<glyph unicode="!" horiz-adv-x="733" d="M181 160q0 50 24.5 91.5t66 66t90.5 24.5t91 -24.5t66.5 -66t24.5 -91.5q0 -49 -24.5 -90t-66.5 -65.5t-91 -24.5t-90.5 24.5t-66 65.5t-24.5 90zM197 573v922q0 20 10.5 30.5t30.5 10.5h247q41 0 41 -41v-922q0 -20 -10.5 -30.5t-30.5 -10.5h-247q-19 0 -30 11t-11 30z " />
<glyph unicode="&#x22;" horiz-adv-x="1145" d="M199 1493q-1 43 40 43h223q21 0 31.5 -11t9.5 -32l-29 -572q-1 -19 -11.5 -29.5t-29.5 -10.5h-155q-19 0 -30 10.5t-12 29.5zM643 1493q-1 21 9.5 32t31.5 11h222q41 0 40 -43l-36 -572q-2 -19 -12 -29.5t-29 -10.5h-156q-18 0 -28.5 10.5t-12.5 29.5z" />
<glyph unicode="#" horiz-adv-x="1671" d="M95 366l1 9l21 148q6 39 43 39h211q39 0 45 37l45 294q3 20 -7.5 31.5t-31.5 11.5h-202q-18 0 -28 10t-10 26l1 9l24 147q6 36 43 36h209q39 0 45 37l36 264q6 39 45 39h146q17 0 27.5 -9.5t10.5 -25.5l-1 -8l-34 -253l-1 -9q0 -17 10 -26t28 -9h251q39 0 45 37l36 264 q6 39 45 39h146q17 0 28 -9t11 -25q0 -6 -1 -9l-35 -253q-3 -20 8 -32t31 -12h202q20 0 31 -12.5t8 -32.5l-25 -146q-6 -37 -43 -37h-211q-40 0 -45 -37l-40 -294q-3 -19 8 -31t31 -12h198q18 0 28 -9t10 -25l-1 -9l-21 -148q-4 -39 -43 -39h-209q-38 0 -45 -37l-38 -258 q-5 -37 -45 -37h-144q-18 0 -28.5 9t-10.5 25q0 6 1 9l34 246q3 20 -8 31.5t-31 11.5h-253q-38 0 -44 -39l-34 -254q-6 -39 -45 -39h-145q-21 0 -31.5 11.5t-7.5 31.5l34 246q3 20 -8 31.5t-31 11.5h-201q-18 0 -28 9t-10 25zM648 605q-3 -19 7 -31t30 -12h251q39 0 45 37 l43 294q3 20 -8 31.5t-31 11.5h-253q-37 0 -43 -38z" />
<glyph unicode="$" horiz-adv-x="1350" d="M100 229q0 14 10 27l138 181q13 16 28 16q13 0 29 -14q82 -76 189.5 -125t197.5 -49q77 0 124 36.5t47 104.5q0 54 -31.5 92t-82 66t-146.5 70l-44 19q-129 57 -213 110.5t-142 141t-58 215.5q0 117 49 207t135.5 146t197.5 74v112q0 41 41 41h208q41 0 41 -41v-126 q169 -43 312 -152q18 -15 18 -31q0 -13 -10 -26l-125 -181q-12 -18 -29 -18q-15 0 -28 13q-77 62 -166.5 97.5t-164.5 35.5q-65 0 -105 -30t-40 -86q0 -47 30.5 -81.5t79.5 -61t146 -69.5l42 -18q130 -58 219 -116t149 -152t60 -229q0 -121 -50 -212t-137.5 -146.5 t-200.5 -76.5v-115q0 -41 -41 -41h-208q-41 0 -41 41v119q-114 22 -221 74t-193 128q-14 14 -14 30z" />
<glyph unicode="%" horiz-adv-x="1885" d="M99 1186q0 101 50 186t135.5 134.5t185.5 49.5q101 0 186 -49.5t134.5 -134.5t49.5 -186q0 -100 -49.5 -185.5t-134.5 -135.5t-186 -50t-186 50t-135 135t-50 186zM323 1186q0 -40 19.5 -74t53.5 -53.5t74 -19.5q41 0 74.5 19.5t52.5 53.5t19 74t-20 73.5t-53.5 53 t-72.5 19.5q-40 0 -74 -19t-53.5 -52.5t-19.5 -74.5zM406 28q0 9 6 21l782 1459q14 28 47 28h195q17 0 26.5 -7.5t9.5 -19.5q0 -10 -6 -22l-782 -1459q-14 -28 -47 -28h-195q-17 0 -26.5 7.5t-9.5 20.5zM1044 355q0 101 50.5 186t136 134.5t186.5 49.5t185.5 -49.5 t134 -134.5t49.5 -186q0 -100 -49.5 -185.5t-134 -135.5t-185.5 -50q-102 0 -187.5 49.5t-135.5 134.5t-50 187zM1269 355q0 -40 20 -73.5t54 -53t74 -19.5t73.5 19.5t53 53t19.5 73.5q0 38 -20 72t-53.5 54t-72.5 20q-40 0 -74 -19.5t-54 -53t-20 -73.5z" />
<glyph unicode="&#x26;" horiz-adv-x="1579" d="M105 434q0 96 31.5 169t90 134.5t156.5 136.5q19 15 19 31q0 13 -12 28q-53 66 -78.5 128.5t-25.5 132.5q0 103 49 185t134.5 128t192.5 46q105 0 191.5 -43.5t136.5 -121.5t50 -178q0 -104 -51 -179.5t-149 -152.5q-17 -13 -17 -31q0 -15 11 -27l168 -204q14 -16 29 -16 q14 0 28 16l179 219q14 17 31 17q14 0 28 -14l128 -129q14 -16 14 -32q0 -14 -11 -28l-205 -249q-10 -13 -10 -28t10 -29l238 -295q11 -14 11 -27q0 -11 -9.5 -18t-26.5 -7l-253 3q-33 0 -50 23l-95 116q-13 18 -31 18q-14 0 -26 -11q-90 -80 -184.5 -123t-207.5 -43 q-133 0 -243.5 54.5t-175.5 157.5t-65 243zM374 433q0 -56 30 -100.5t78 -69.5t99 -25q59 0 115 31.5t116 85.5q14 14 14 28t-12 29l-207 252q-14 17 -32 17q-11 0 -25 -8q-52 -36 -88 -67t-62 -75t-26 -98zM538 1211q0 -40 19.5 -73t58.5 -78q15 -16 31 -16q12 0 27 9 q56 40 85 75t29 84q0 52 -35 84t-85 32q-56 0 -93 -31.5t-37 -85.5z" />
<glyph unicode="'" horiz-adv-x="705" d="M201 1493q-1 21 9 32t30 11h225q42 0 41 -43l-35 -572q-1 -19 -11.5 -29.5t-29.5 -10.5h-155q-18 0 -28.5 10.5t-12.5 29.5z" />
<glyph unicode="(" horiz-adv-x="745" d="M93 688q0 246 48.5 464.5t139.5 389t215 276.5q14 11 27 11q17 0 31 -18l133 -158q11 -14 11 -26q0 -16 -16 -30q-88 -77 -154.5 -212t-103.5 -314.5t-37 -382.5q0 -204 37 -383t103.5 -314t154.5 -211q16 -14 16 -30q0 -12 -11 -26l-133 -159q-14 -17 -31 -17 q-14 0 -27 10q-124 107 -215 277t-139.5 388t-48.5 465z" />
<glyph unicode=")" horiz-adv-x="745" d="M47 -250q0 16 16 30q88 76 154.5 211t103.5 314t37 383q0 203 -37 382t-103.5 314.5t-154.5 211.5q-16 16 -16 31q0 12 11 26l133 158q13 18 31 18q13 0 27 -12q124 -106 215 -276t139.5 -388.5t48.5 -464.5q0 -247 -48.5 -465t-139.5 -388t-215 -277q-13 -10 -27 -10 q-17 0 -31 17l-133 159q-11 14 -11 26z" />
<glyph unicode="*" horiz-adv-x="1048" d="M117 1131v85q0 18 9.5 28t26.5 10l8 -1l242 -42q4 -1 12 -1q13 0 20 6t7 15q0 12 -12 27l-157 187q-11 12 -11 27q0 18 21 30l74 43q14 8 24 8q9 0 17 -6.5t12 -19.5l86 -231q11 -26 27 -26q8 0 15.5 7t11.5 19l85 231q4 13 12.5 20t19.5 7t22 -7l77 -45q21 -12 21 -30 q0 -12 -12 -27l-159 -187q-12 -15 -12 -27q0 -9 7 -15t19 -6q8 0 12 1l242 42l9 1q17 0 26.5 -10t9.5 -28v-85q0 -18 -9 -28t-25 -10q-7 0 -11 1l-242 41q-10 2 -13 2q-12 0 -18.5 -6t-6.5 -15q0 -12 12 -26l159 -186q12 -15 12 -28q0 -17 -21 -29l-77 -46q-11 -7 -22 -7 q-21 0 -32 27l-85 230q-4 12 -11.5 19t-15.5 7q-16 0 -27 -26l-86 -230q-9 -27 -30 -27q-10 0 -23 8l-74 45q-21 13 -21 31q0 12 11 26l157 186q12 14 12 26q0 10 -8 16t-21 6q-6 0 -10 -1l-242 -43q-4 -1 -11 -1q-15 0 -24 10t-9 28z" />
<glyph unicode="+" horiz-adv-x="1245" d="M119 622v166q0 41 41 41h298q19 0 29.5 10.5t10.5 30.5v298q0 20 10.5 30.5t30.5 10.5h167q20 0 30.5 -10.5t10.5 -30.5v-298q0 -20 10.5 -30.5t30.5 -10.5h297q41 0 41 -41v-166q0 -20 -10.5 -30.5t-30.5 -10.5h-297q-41 0 -41 -41v-298q0 -19 -10.5 -29.5t-30.5 -10.5 h-167q-20 0 -30.5 10.5t-10.5 29.5v298q0 41 -40 41h-298q-20 0 -30.5 10.5t-10.5 30.5z" />
<glyph unicode="," horiz-adv-x="726" d="M164 -337l1 9l107 584q6 36 44 36h250q17 0 27 -8t10 -22q0 -7 -3 -16l-200 -586q-12 -34 -47 -34h-151q-18 0 -28 10t-10 27z" />
<glyph unicode="-" horiz-adv-x="1024" d="M154 437v191q0 40 41 40h634q41 0 41 -40v-191q0 -20 -10.5 -30.5t-30.5 -10.5h-634q-20 0 -30.5 10.5t-10.5 30.5z" />
<glyph unicode="." horiz-adv-x="703" d="M170 160q0 49 24.5 90.5t66 66.5t89.5 25q49 0 90.5 -25t66.5 -66.5t25 -90.5q0 -48 -25 -89.5t-66.5 -66t-90.5 -24.5q-48 0 -89.5 24.5t-66 66t-24.5 89.5z" />
<glyph unicode="/" horiz-adv-x="1278" d="M6 -385q0 11 5 20l959 1872q8 16 19.5 22.5t28.5 6.5h218q16 0 25.5 -7.5t9.5 -20.5q0 -11 -5 -21l-958 -1872q-8 -16 -19.5 -22.5t-28.5 -6.5h-218q-17 0 -26.5 7.5t-9.5 21.5z" />
<glyph unicode="0" d="M87 768q0 262 68 437.5t196.5 263t311.5 87.5q275 0 424.5 -198.5t149.5 -589.5q0 -261 -68.5 -437t-197 -263.5t-308.5 -87.5q-181 0 -310 87.5t-197.5 263.5t-68.5 437zM417 768q0 -253 65 -375t182 -122q115 0 179.5 122.5t64.5 374.5q0 256 -65.5 376.5t-178.5 120.5 q-116 0 -181.5 -120.5t-65.5 -376.5z" />
<glyph unicode="1" d="M224 41v208q0 20 10.5 30.5t30.5 10.5h223q41 0 41 41v803q0 16 -6.5 25.5t-17.5 9.5q-12 0 -27 -12l-203 -170q-15 -12 -27 -12q-11 0 -17.5 9.5t-6.5 25.5v238q0 14 6 25.5t19 23.5l277 221q13 10 24.5 14t27.5 4h240q20 0 30.5 -10.5t10.5 -30.5v-1164q0 -41 40 -41 h223q41 0 41 -41v-208q0 -41 -41 -41h-857q-20 0 -30.5 10.5t-10.5 30.5z" />
<glyph unicode="2" d="M119 1112q9 138 77 239t183.5 154.5t265.5 53.5q149 0 266 -53t183 -149.5t66 -223.5q1 -129 -51 -243.5t-161 -239.5t-305 -307q-17 -17 -17 -30q0 -11 9.5 -17t25.5 -6h498q20 0 30.5 -10.5t10.5 -30.5v-208q0 -20 -10.5 -30.5t-30.5 -10.5h-993q-41 0 -41 41v176 q0 31 23 53q308 292 451 445.5t187.5 237t44.5 168.5q0 93 -55.5 134t-132.5 41q-86 0 -135 -47t-57 -138q-1 -19 -12.5 -30t-30.5 -11l-250 1q-42 0 -39 41z" />
<glyph unicode="3" d="M91 419q-2 21 8 32t30 11h257q35 0 41 -40q13 -82 75 -121.5t150 -39.5q113 0 171.5 58t58.5 153q0 102 -63.5 155.5t-166.5 53.5h-67q-20 0 -30.5 10.5t-10.5 30.5v172q0 19 10.5 30t27.5 11h50q53 0 98.5 20t72.5 61t27 100q0 79 -49.5 120.5t-133.5 41.5 q-75 0 -123 -32.5t-57 -98.5q-10 -39 -43 -39h-251q-21 0 -31 11t-8 32q10 124 79.5 216t182 140.5t247.5 48.5q143 0 256 -54t177 -148t64 -210q0 -97 -42.5 -171.5t-105.5 -118.5q-16 -12 -16 -20q0 -10 20 -17q97 -42 159 -131t62 -228q0 -145 -69.5 -253t-197 -166.5 t-298.5 -58.5q-149 0 -272.5 47t-201 145.5t-87.5 246.5z" />
<glyph unicode="4" d="M61 332v212q0 26 13 51l520 913q15 28 49 28h373q20 0 30.5 -10.5t10.5 -30.5v-873q0 -41 41 -41h131q20 0 30.5 -10.5t10.5 -30.5v-208q0 -41 -41 -41h-131q-20 0 -30.5 -10.5t-10.5 -30.5v-209q0 -20 -10.5 -30.5t-30.5 -10.5h-248q-41 0 -41 41v209q0 20 -10.5 30.5 t-30.5 10.5h-584q-41 0 -41 41zM363 608q0 -13 9 -20t26 -7h288q41 0 41 41v549q0 17 -6 26.5t-15 9.5q-16 0 -28 -23l-309 -554q-6 -12 -6 -22z" />
<glyph unicode="5" d="M106 417q-2 20 8 30.5t31 10.5h251q19 0 29 -9t15 -28q21 -72 80 -109t138 -37q106 0 163.5 60.5t57.5 165.5q0 107 -72 163.5t-242 56.5h-389q-18 0 -28 9t-10 25q0 7 1 11l143 733q6 37 43 37h790q41 0 41 -41v-208q0 -41 -41 -41h-564q-39 0 -45 -37l-30 -173 q-3 -20 8 -32.5t30 -12.5h100q295 0 442.5 -121t147.5 -356q0 -164 -68 -285t-190.5 -185.5t-282.5 -64.5q-144 0 -266.5 53t-200 152.5t-90.5 232.5z" />
<glyph unicode="6" d="M88 518q0 93 33 183t105 189l456 621q18 25 49 25h282q17 0 26 -6.5t9 -17.5q0 -12 -10 -26l-295 -384q-12 -16 -12 -26q0 -6 4 -9q5 -7 28 -12q129 -18 237 -87t172 -180.5t64 -252.5q0 -158 -76.5 -285t-207.5 -198.5t-287 -71.5q-160 0 -292 71.5t-208.5 195 t-76.5 271.5zM398 524q0 -72 31 -129.5t89.5 -90t136.5 -32.5q77 0 135.5 34t90 91.5t31.5 126.5q0 74 -31.5 133.5t-90 94t-135.5 34.5q-78 0 -136.5 -34.5t-89.5 -94t-31 -133.5z" />
<glyph unicode="7" d="M129 1287v208q0 41 41 41h997q41 0 41 -41v-185q0 -27 -12 -51l-654 -1230q-7 -15 -18.5 -22t-29.5 -7h-286q-16 0 -25.5 7.5t-9.5 19.5q0 10 6 22l632 1148q6 12 6 22q0 12 -9.5 19.5t-25.5 7.5h-612q-41 0 -41 41z" />
<glyph unicode="8" d="M92 454q0 120 51 212t146 152q19 13 19 26q0 12 -17 27q-62 52 -95 122t-33 156q0 120 63.5 212.5t176 143.5t255.5 51t255.5 -51t176 -143t63.5 -213q0 -85 -32.5 -155.5t-93.5 -123.5q-16 -14 -16 -26q0 -14 20 -26q94 -60 144.5 -152t50.5 -212q0 -145 -73.5 -252 t-202.5 -164.5t-292 -57.5q-162 0 -290.5 57t-202 164t-73.5 253zM421 494q0 -69 30.5 -119.5t84 -77.5t122.5 -27q70 0 124 27t84.5 77.5t30.5 119.5q0 68 -30.5 118t-85 76.5t-123.5 26.5q-68 0 -122 -26.5t-84.5 -76.5t-30.5 -118zM470 1114q0 -49 24.5 -88.5t67.5 -62 t98 -22.5q54 0 96.5 22.5t67 62.5t24.5 88t-24.5 87.5t-67 61.5t-96.5 22q-55 0 -98 -22t-67.5 -61.5t-24.5 -87.5z" />
<glyph unicode="9" d="M88 1017q0 150 78.5 273.5t210.5 194.5t286 71q157 0 288.5 -72t208 -195t76.5 -271q0 -93 -32.5 -183t-104.5 -189l-456 -621q-18 -25 -49 -25h-283q-16 0 -25 6.5t-9 17.5q0 12 10 26l294 384q11 16 11 25q0 10 -8.5 16t-24.5 7q-44 5 -76 14q-104 29 -194.5 106.5 t-145.5 187t-55 227.5zM412 1010q0 -74 32 -133t90.5 -93t135.5 -34q78 0 136 34t89 93t32 133q0 73 -31 130.5t-89.5 90.5t-136.5 33q-76 0 -134.5 -33.5t-91 -91.5t-32.5 -129z" />
<glyph unicode=":" horiz-adv-x="680" d="M159 160q0 49 24.5 90.5t66 66.5t89.5 25q49 0 90.5 -25t66.5 -66.5t25 -90.5q0 -48 -25 -89.5t-66.5 -66t-90.5 -24.5q-48 0 -89.5 24.5t-66 66t-24.5 89.5zM159 864q0 48 24.5 89.5t66 66t89.5 24.5q49 0 90.5 -24.5t66.5 -66t25 -89.5q0 -49 -25 -90.5t-66.5 -66.5 t-90.5 -25q-48 0 -89.5 25t-66 66.5t-24.5 90.5z" />
<glyph unicode=";" horiz-adv-x="713" d="M124 -337l1 9l108 584q6 36 43 36h251q17 0 26.5 -8t9.5 -22q0 -7 -3 -16l-200 -586q-10 -34 -47 -34h-151q-18 0 -28 10t-10 27zM206 864q0 48 24.5 89.5t66 66t89.5 24.5q49 0 90.5 -24.5t66.5 -66t25 -89.5q0 -49 -25 -90.5t-66.5 -66.5t-90.5 -25q-48 0 -89.5 25 t-66 66.5t-24.5 90.5z" />
<glyph unicode="&#x3c;" horiz-adv-x="1380" d="M105 657v233q0 31 31 48l1051 528q12 6 22 6q12 0 19.5 -9.5t7.5 -25.5v-188q0 -17 -7 -28t-22 -19l-790 -398q-23 -11 -23 -29q0 -17 23 -29l790 -400q16 -7 22.5 -18.5t6.5 -28.5v-190q0 -17 -7.5 -27t-20.5 -10q-10 0 -21 6l-1053 532q-16 8 -22.5 19t-6.5 28z" />
<glyph unicode="=" horiz-adv-x="1379" d="M232 398v166q0 20 11 30.5t30 10.5h833q20 0 30.5 -10.5t10.5 -30.5v-166q0 -41 -41 -41h-833q-20 0 -30.5 10.5t-10.5 30.5zM232 847v167q0 20 11 30.5t30 10.5h833q20 0 30.5 -10.5t10.5 -30.5v-167q0 -40 -41 -40h-833q-20 0 -30.5 10.5t-10.5 29.5z" />
<glyph unicode="&#x3e;" horiz-adv-x="1380" d="M144 109v190q0 17 6.5 28.5t21.5 18.5l791 400q23 12 23 29q0 19 -23 29l-789 398q-30 15 -30 47v188q0 17 7 26t20 9q10 0 22 -6l1051 -528q15 -8 22.5 -19.5t7.5 -28.5v-233q0 -17 -6.5 -28t-21.5 -19l-1053 -532q-12 -6 -21 -6q-13 0 -20.5 10t-7.5 27z" />
<glyph unicode="?" horiz-adv-x="1188" d="M72 1113q9 130 76.5 230.5t181 156.5t256.5 56q144 0 260.5 -56.5t183.5 -162.5t67 -249q0 -182 -95.5 -281.5t-231.5 -135.5q-36 -11 -36 -46v-103q0 -41 -41 -41h-213q-40 0 -40 41v290q0 20 10.5 30.5t29.5 10.5q157 5 243.5 55.5t86.5 176.5q0 98 -63 150t-160 52 q-93 0 -153.5 -48t-73.5 -129q-6 -38 -42 -38h-207q-42 0 -39 41zM412 160q0 50 24.5 91.5t66 66t91.5 24.5q49 0 90 -24.5t65.5 -66t24.5 -91.5q0 -49 -24.5 -90.5t-65.5 -65.5t-90 -24q-50 0 -91.5 24t-66 65.5t-24.5 90.5z" />
<glyph unicode="@" horiz-adv-x="1794" d="M128 518q0 223 109 402.5t293.5 281t400.5 101.5q197 0 366.5 -78t273 -231.5t103.5 -369.5q0 -178 -62 -295.5t-158 -172t-199 -54.5q-70 0 -117 23.5t-67 62.5q-5 7 -9 12t-8 5q-6 0 -18 -12q-35 -39 -92 -65t-130 -26q-98 0 -169.5 46.5t-109 127t-37.5 181.5 q0 113 50 224.5t147 185t229 73.5q142 0 184 -104q9 -24 16 -24t12 23l9 38q10 37 45 37h98q17 0 27 -8t10 -23q0 -4 -2 -14l-27 -127q-29 -138 -49 -242q-19 -100 -19 -137q0 -38 14.5 -55t48.5 -17q53 0 95 41t65.5 114t23.5 166q0 169 -73 282.5t-196.5 168.5t-276.5 55 q-175 0 -308 -80t-205 -217t-72 -303q0 -181 78 -314.5t214.5 -203.5t308.5 -70q217 0 380 96q14 8 25 8q20 0 33 -21l61 -89q9 -14 9 -25q0 -18 -21 -30q-214 -127 -503 -127q-236 0 -418 101t-282.5 278.5t-100.5 400.5zM697 451q0 -70 34 -127t115 -57q78 0 130 49 t76.5 120t25.5 139q0 87 -35.5 144t-118.5 57q-69 0 -121 -49t-79 -124t-27 -152z" />
<glyph unicode="A" horiz-adv-x="1623" d="M52 30q0 8 3 17l540 1457q12 32 47 32h337q35 0 47 -32l542 -1457q3 -9 3 -17q0 -14 -9.5 -22t-26.5 -8h-271q-34 0 -45 33l-84 238q-11 33 -45 33h-557q-34 0 -45 -33l-84 -238q-6 -18 -17 -25.5t-29 -7.5h-270q-17 0 -26.5 8t-9.5 22zM609 616q0 -14 9.5 -22t26.5 -8 h333q35 0 35 31q0 10 -2 16l-173 494q-4 14 -11.5 21t-15.5 7q-17 0 -26 -28l-173 -494q-3 -9 -3 -17z" />
<glyph unicode="B" horiz-adv-x="1436" d="M195 41v1454q0 41 41 41h478q168 0 285.5 -50.5t178.5 -146t61 -227.5q0 -183 -118 -279q-16 -13 -16 -24q0 -12 21 -20q226 -94 226 -359q0 -131 -56.5 -227.5t-169.5 -149.5t-277 -53h-613q-41 0 -41 41zM524 331q0 -41 41 -41h237q116 0 169 50.5t53 128.5t-54.5 131 t-167.5 53h-237q-41 0 -41 -41v-281zM524 956q0 -20 10.5 -30.5t30.5 -10.5h162q102 0 152.5 47.5t50.5 126.5q0 78 -47.5 121.5t-155.5 43.5h-162q-41 0 -41 -41v-257z" />
<glyph unicode="C" horiz-adv-x="1557" d="M90 768q0 223 106.5 403t293 282.5t418.5 102.5q164 0 310.5 -56.5t256.5 -158.5q15 -13 15 -29q0 -14 -15 -29l-179 -167q-13 -13 -28 -13q-16 0 -31 15q-64 61 -148.5 94.5t-180.5 33.5q-134 0 -243.5 -62.5t-172.5 -172t-63 -243.5t63 -243.5t172.5 -172t243.5 -62.5 q96 0 181 33.5t148 95.5q14 13 30 13t29 -14l179 -165q16 -16 16 -31q0 -13 -13 -25q-110 -102 -257.5 -159.5t-312.5 -57.5q-232 0 -418.5 102.5t-293 282.5t-106.5 403z" />
<glyph unicode="D" horiz-adv-x="1624" d="M195 41v1454q0 41 41 41h505q255 0 431 -94t265 -266.5t89 -407.5t-89 -407.5t-265 -266.5t-431 -94h-505q-41 0 -41 41zM534 339q0 -20 10.5 -30.5t30.5 -10.5h150q446 0 446 470t-446 470h-150q-20 0 -30.5 -10.5t-10.5 -30.5v-858z" />
<glyph unicode="E" horiz-adv-x="1273" d="M195 41v1454q0 41 41 41h860q20 0 30.5 -10.5t10.5 -30.5v-216q0 -20 -10.5 -30.5t-30.5 -10.5h-521q-20 0 -30.5 -10.5t-10.5 -30.5v-241q0 -41 41 -41h451q41 0 41 -41v-213q0 -41 -41 -41h-451q-41 0 -41 -41v-240q0 -20 10.5 -30.5t30.5 -10.5h521q20 0 30.5 -10.5 t10.5 -30.5v-216q0 -20 -10.5 -30.5t-30.5 -10.5h-860q-41 0 -41 41z" />
<glyph unicode="F" horiz-adv-x="1233" d="M195 41v1454q0 41 41 41h876q41 0 41 -41v-216q0 -41 -41 -41h-537q-20 0 -30.5 -10.5t-10.5 -30.5v-241q0 -20 10.5 -30.5t30.5 -10.5h451q41 0 41 -41v-212q0 -41 -41 -41h-451q-20 0 -30.5 -10.5t-10.5 -30.5v-539q0 -41 -41 -41h-257q-41 0 -41 41z" />
<glyph unicode="G" horiz-adv-x="1799" d="M90 768q0 223 106.5 403t293.5 282.5t418 102.5q201 0 371 -79t281 -219q10 -13 10 -26q0 -18 -22 -29l-224 -125q-14 -7 -23 -7q-18 0 -35 19q-66 74 -159 115t-201 41q-133 0 -242 -62.5t-172 -174t-63 -251.5q0 -131 57.5 -237.5t167 -168.5t259.5 -62 q161 0 274.5 71.5t162.5 199.5q3 8 3 15q0 15 -10.5 23.5t-27.5 8.5h-300q-41 0 -41 41v191q0 41 41 41h663q19 0 30.5 -9.5t13.5 -28.5q4 -44 4 -98q-5 -215 -113 -390t-293 -275t-412 -100q-231 0 -418 102.5t-293.5 282.5t-106.5 403z" />
<glyph unicode="H" horiz-adv-x="1689" d="M195 41v1454q0 41 41 41h257q41 0 41 -41v-537q0 -41 41 -41h539q20 0 30.5 10.5t10.5 30.5v537q0 41 41 41h257q41 0 41 -41v-1454q0 -41 -41 -41h-257q-41 0 -41 41v541q0 20 -10.5 30.5t-30.5 10.5h-539q-20 0 -30.5 -10.5t-10.5 -30.5v-541q0 -41 -41 -41h-257 q-41 0 -41 41z" />
<glyph unicode="I" horiz-adv-x="729" d="M195 41v1454q0 41 41 41h257q41 0 41 -41v-1454q0 -41 -41 -41h-257q-41 0 -41 41z" />
<glyph unicode="J" horiz-adv-x="1141" d="M48 101q0 10 6 22l107 203q12 23 32 23q12 0 25 -7q99 -58 209 -58q104 0 154.5 59.5t50.5 187.5v964q0 41 41 41h257q41 0 41 -41v-1027q0 -155 -64 -265t-179.5 -166.5t-267.5 -56.5q-92 0 -191 21.5t-197 66.5q-24 11 -24 33z" />
<glyph unicode="K" horiz-adv-x="1597" d="M195 41v1454q0 41 41 41h257q41 0 41 -41v-566q0 -16 6.5 -25.5t16.5 -9.5q13 0 28 17l496 601q18 24 49 24h336q16 0 25 -6.5t9 -17.5q0 -13 -12 -27l-559 -649q-12 -15 -12 -29t11 -28l592 -729q11 -14 11 -27q0 -11 -9 -17t-25 -6h-354q-32 0 -49 25l-510 670 q-13 19 -28 19q-10 0 -16 -9.5t-6 -26.5v-637q0 -41 -41 -41h-257q-41 0 -41 41z" />
<glyph unicode="L" horiz-adv-x="1098" d="M195 41v1454q0 41 41 41h257q41 0 41 -41v-1156q0 -20 10.5 -30.5t30.5 -10.5h426q41 0 41 -41v-216q0 -41 -41 -41h-765q-41 0 -41 41z" />
<glyph unicode="M" horiz-adv-x="2128" d="M195 41v1454q0 41 41 41h397q17 0 29.5 -8.5t18.5 -23.5l355 -879q11 -26 26 -26q16 0 27 26l360 879q6 15 18.5 23.5t28.5 8.5h396q41 0 41 -41v-1454q0 -41 -41 -41h-257q-41 0 -41 41v940q0 16 -6 25t-15 9q-17 0 -26 -25l-381 -958q-6 -15 -18.5 -23.5t-28.5 -8.5 h-112q-16 0 -28.5 8.5t-18.5 23.5l-379 961q-10 25 -25 25q-9 0 -15.5 -9.5t-6.5 -25.5v-942q0 -41 -41 -41h-257q-41 0 -41 41z" />
<glyph unicode="N" horiz-adv-x="1882" d="M195 41v1454q0 41 41 41h262q31 0 50 -24l749 -956q13 -18 29 -18q9 0 15.5 9t6.5 26v922q0 20 10.5 30.5t30.5 10.5h258q20 0 30.5 -10.5t10.5 -30.5v-1454q0 -20 -10.5 -30.5t-30.5 -10.5h-265q-30 0 -50 24l-749 961q-13 18 -28 18q-10 0 -16.5 -9.5t-6.5 -26.5v-926 q0 -41 -41 -41h-255q-41 0 -41 41z" />
<glyph unicode="O" horiz-adv-x="1815" d="M90 768q0 223 106.5 403t293.5 282.5t418 102.5t418 -102.5t293.5 -282.5t106.5 -403t-106.5 -403t-293.5 -282.5t-418 -102.5t-418 102.5t-293.5 282.5t-106.5 403zM429 768q0 -134 63 -243.5t172.5 -172t243.5 -62.5t243 62.5t172 172t63 243.5t-63 243.5t-172 172 t-243 62.5t-243.5 -62.5t-172.5 -172t-63 -243.5z" />
<glyph unicode="P" horiz-adv-x="1462" d="M195 41v1454q0 41 41 41h636q154 0 271.5 -67t181.5 -181.5t64 -252.5q0 -141 -63.5 -253t-181 -176t-272.5 -64h-297q-41 0 -41 -41v-460q0 -41 -41 -41h-257q-41 0 -41 41zM534 867q0 -41 41 -41h243q122 0 183.5 55.5t61.5 157.5q0 98 -62.5 156t-182.5 58h-243 q-20 0 -30.5 -10.5t-10.5 -30.5v-345z" />
<glyph unicode="Q" horiz-adv-x="1835" d="M91 768q0 223 106.5 403t293.5 282.5t418 102.5t418 -102.5t293.5 -282.5t106.5 -403q0 -149 -48.5 -281.5t-139.5 -236.5q-12 -15 -12 -29q0 -15 13 -28l144 -157q12 -13 12 -27q0 -18 -24 -30l-157 -75q-12 -6 -23 -6q-19 0 -34 16l-123 134q-15 17 -34 17 q-11 0 -23 -6q-174 -79 -369 -79q-231 0 -418 102.5t-293.5 282.5t-106.5 403zM431 768q0 -134 63 -243.5t172 -172t243 -62.5q63 0 120 20q28 6 28 26q0 14 -13 28l-208 226q-13 13 -13 28q0 20 24 29l176 64q9 4 20 4q20 0 35 -17l179 -194q14 -15 29 -15q17 0 29 18 q35 57 54 123.5t19 137.5q0 134 -63 243.5t-172.5 172t-243.5 62.5t-243 -62.5t-172 -172t-63 -243.5z" />
<glyph unicode="R" horiz-adv-x="1498" d="M195 41v1454q0 41 41 41h567q165 0 279.5 -61t172 -166t57.5 -236q0 -123 -57 -220t-157 -152q-25 -14 -25 -33q0 -10 8 -23l354 -596q7 -11 7 -22q0 -12 -9.5 -19.5t-25.5 -7.5h-279q-34 0 -49 29l-313 580q-17 29 -50 29h-141q-20 0 -30.5 -10.5t-10.5 -30.5v-556 q0 -41 -41 -41h-257q-41 0 -41 41zM534 942q0 -40 41 -40h207q102 0 152.5 46t50.5 130q0 83 -50.5 129.5t-152.5 46.5h-207q-41 0 -41 -41v-271z" />
<glyph unicode="S" horiz-adv-x="1268" d="M79 229q0 14 10 27l138 181q13 16 28 16q13 0 29 -14q82 -76 189.5 -125t197.5 -49q77 0 124 36.5t47 104.5q0 54 -31.5 92t-82 66t-146.5 70l-44 19q-129 57 -213 110.5t-142 141t-58 215.5q0 135 65 234t176.5 150.5t247.5 51.5q129 0 257 -45.5t238 -129.5 q18 -15 18 -31q0 -13 -10 -26l-125 -181q-12 -18 -29 -18q-15 0 -28 13q-77 62 -166.5 97.5t-164.5 35.5q-65 0 -105 -30t-40 -86q0 -47 30.5 -81.5t79.5 -61t146 -69.5l42 -18q130 -58 219 -116t149 -152t60 -229q0 -144 -69.5 -244.5t-187.5 -151.5t-262 -51 q-152 0 -304 57.5t-269 160.5q-14 14 -14 30z" />
<glyph unicode="T" horiz-adv-x="1222" d="M55 1279v216q0 20 10.5 30.5t30.5 10.5h1030q20 0 30.5 -10.5t10.5 -30.5v-216q0 -20 -10.5 -30.5t-30.5 -10.5h-304q-20 0 -30.5 -10.5t-10.5 -30.5v-1156q0 -20 -10.5 -30.5t-30.5 -10.5h-256q-41 0 -41 41v1156q0 20 -10.5 30.5t-30.5 10.5h-306q-20 0 -30.5 10.5 t-10.5 30.5z" />
<glyph unicode="U" horiz-adv-x="1607" d="M164 541v954q0 41 41 41h257q41 0 41 -41v-905q0 -165 81 -238.5t218 -73.5q138 0 219.5 73.5t81.5 238.5v905q0 20 10.5 30.5t30.5 10.5h258q41 0 41 -41v-954q0 -188 -82.5 -313.5t-227 -186.5t-331.5 -61q-185 0 -329 61t-226.5 186.5t-82.5 313.5z" />
<glyph unicode="V" horiz-adv-x="1579" d="M51 1507q0 14 10 21.5t27 7.5h277q18 0 29 -7.5t17 -25.5l352 -1020q10 -28 27 -28t26 28l353 1020q11 33 45 33h278q17 0 26.5 -8t9.5 -22q0 -8 -3 -17l-540 -1456q-12 -33 -47 -33h-298q-35 0 -47 33l-538 1456q-4 12 -4 18z" />
<glyph unicode="W" horiz-adv-x="2297" d="M62 1504q0 14 10.5 23t27.5 9h272q18 0 29.5 -9.5t15.5 -26.5l243 -1038q4 -15 11 -22.5t15 -7.5q7 0 13.5 7.5t10.5 21.5l283 1041q9 34 45 34h220q36 0 45 -34l283 -1041q4 -14 10.5 -21.5t14.5 -7.5t14.5 7.5t10.5 22.5l244 1038q4 17 15.5 26.5t29.5 9.5h271 q18 0 28 -9t10 -24q0 -8 -1 -12l-371 -1456q-9 -35 -45 -35h-353q-18 0 -30.5 9t-16.5 25l-243 868q-4 14 -10.5 22t-14.5 8t-14.5 -7.5t-10.5 -22.5l-245 -868q-9 -34 -46 -34h-353q-36 0 -45 35l-371 1456q-2 8 -2 13z" />
<glyph unicode="X" horiz-adv-x="1507" d="M64 26q0 12 8 23l480 714q9 15 9 29q0 13 -9 28l-449 667q-9 12 -9 23t9.5 18.5t25.5 7.5h297q17 0 28.5 -6t21.5 -21l248 -391q14 -20 29 -20q17 0 29 20l251 391q18 27 50 27h295q17 0 26 -7t9 -19t-8 -23l-451 -667q-9 -15 -9 -28q0 -12 9 -29l481 -714q9 -12 9 -23 t-9.5 -18.5t-25.5 -7.5h-298q-17 0 -28.5 6t-20.5 21l-280 440q-11 20 -29 20q-16 0 -29 -20l-279 -440q-9 -15 -20.5 -21t-28.5 -6h-297q-17 0 -26 7t-9 19z" />
<glyph unicode="Y" horiz-adv-x="1465" d="M49 1510q0 12 9 19t26 7h290q18 0 29.5 -6t20.5 -21l282 -449q12 -20 29 -20q16 0 28 20l282 449q9 15 20.5 21t28.5 6h287q16 0 25.5 -7t9.5 -18q0 -12 -9 -24l-489 -739q-14 -22 -14 -51v-656q0 -41 -41 -41h-258q-20 0 -30.5 10.5t-10.5 30.5v650q0 28 -14 52 l-493 744q-8 11 -8 23z" />
<glyph unicode="Z" horiz-adv-x="1277" d="M107 41v197q0 25 16 52l613 899q9 14 9 25t-9 17.5t-25 6.5h-563q-41 0 -41 41v216q0 41 41 41h981q41 0 41 -41v-198q0 -25 -16 -51l-610 -899q-9 -13 -9 -24t9 -18t25 -7h560q41 0 41 -41v-216q0 -41 -41 -41h-981q-41 0 -41 41z" />
<glyph unicode="[" horiz-adv-x="757" d="M156 -471v2282q0 41 41 41h467q41 0 41 -41v-147q0 -20 -10.5 -30.5t-30.5 -10.5h-182q-41 0 -41 -41v-1824q0 -41 41 -41h182q41 0 41 -41v-147q0 -41 -41 -41h-467q-41 0 -41 41z" />
<glyph unicode="\" horiz-adv-x="1278" d="M6 1508q0 13 9.5 20.5t26.5 7.5h218q17 0 28.5 -6.5t19.5 -22.5l958 -1872q5 -9 5 -21q0 -13 -9.5 -20.5t-25.5 -7.5h-218q-17 0 -28.5 6.5t-19.5 22.5l-959 1872q-5 10 -5 21z" />
<glyph unicode="]" horiz-adv-x="757" d="M51 -324q0 20 10.5 30.5t30.5 10.5h182q41 0 41 41v1824q0 41 -41 41h-182q-19 0 -30 11t-11 30v147q0 20 10.5 30.5t30.5 10.5h468q40 0 40 -41v-2282q0 -41 -40 -41h-468q-20 0 -30.5 10.5t-10.5 30.5v147z" />
<glyph unicode="^" horiz-adv-x="1587" d="M98 434q0 11 5 21l531 1050q8 16 19 23.5t28 7.5h225q17 0 28.5 -7.5t19.5 -23.5l530 -1050q5 -10 5 -21q0 -13 -9.5 -20.5t-26.5 -7.5h-183q-32 0 -47 30l-400 794q-10 23 -28 23q-19 0 -29 -23l-401 -794q-8 -16 -19.5 -23t-28.5 -7h-183q-17 0 -26.5 7.5t-9.5 20.5z " />
<glyph unicode="_" horiz-adv-x="1331" d="M154 -25q0 41 41 41h942q20 0 30.5 -10.5t10.5 -30.5v-190q0 -20 -10.5 -30.5t-30.5 -10.5h-942q-20 0 -30.5 10.5t-10.5 30.5v190z" />
<glyph unicode="`" horiz-adv-x="500" d="M58 1451q0 18 19 30l92 64q15 10 26 10q17 0 30 -19l209 -298q10 -15 10 -25q0 -11 -9 -17.5t-26 -6.5h-108q-34 0 -51 23l-181 211q-11 14 -11 28z" />
<glyph unicode="a" horiz-adv-x="1390" d="M71 532q0 158 69 284.5t185 198t252 71.5q169 0 283 -99q21 -16 32 -16q17 0 17 25v22q0 20 10.5 30.5t30.5 10.5h245q20 0 30.5 -10.5t10.5 -30.5v-977q0 -20 -10.5 -30.5t-30.5 -10.5h-247q-20 0 -30.5 10.5t-10.5 30.5v12q0 18 -5 28.5t-14 10.5q-8 0 -17 -9 q-111 -105 -294 -105q-136 0 -252 71t-185 198t-69 285zM398 532q0 -85 36 -149t99 -98.5t142 -34.5q77 0 139 34.5t98 99t36 148.5t-36 148.5t-98 99t-139 34.5q-79 0 -142 -34.5t-99 -98.5t-36 -149z" />
<glyph unicode="b" horiz-adv-x="1392" d="M156 41v1454q0 41 41 41h245q41 0 41 -41l2 -488q0 -34 19 -34q11 0 28 14q114 99 283 99q136 0 252 -71.5t185 -198t69 -284.5t-69 -285t-185 -198t-252 -71q-170 0 -283 95q-17 16 -31 16q-16 0 -16 -24v-24q0 -20 -10.5 -30.5t-30.5 -10.5h-247q-41 0 -41 41zM444 532 q0 -84 36 -148.5t98 -99t139 -34.5q79 0 142 34.5t99 98.5t36 149t-36 149t-99 98.5t-142 34.5q-77 0 -139 -34.5t-98 -99t-36 -148.5z" />
<glyph unicode="c" horiz-adv-x="1137" d="M66 530q0 159 76.5 284t210 195t300.5 70q125 0 233.5 -41t188.5 -117q14 -14 14 -27q0 -15 -17 -30l-164 -142q-11 -11 -26 -11q-16 0 -31 16q-38 38 -89 58.5t-110 20.5q-77 0 -140 -34t-99.5 -97t-36.5 -145t36.5 -144.5t99.5 -96.5t140 -34q59 0 110 20.5t89 58.5 q15 16 31 16q15 0 26 -11l164 -142q18 -16 18 -32q0 -11 -11 -22q-79 -77 -189 -119t-237 -42q-167 0 -300.5 69.5t-210 194.5t-76.5 284z" />
<glyph unicode="d" horiz-adv-x="1392" d="M71 532q0 158 69 284.5t185 198t252 71.5q169 0 283 -99q17 -14 28 -14q19 0 19 34l2 488q0 41 41 41h245q20 0 30.5 -10.5t10.5 -30.5v-1454q0 -20 -10.5 -30.5t-30.5 -10.5h-247q-20 0 -30.5 10.5t-10.5 30.5v12q0 18 -5 28.5t-14 10.5q-8 0 -17 -9 q-111 -105 -294 -105q-136 0 -252 71t-185 198t-69 285zM398 532q0 -85 36 -149t99 -98.5t142 -34.5q77 0 139 34.5t98 99t36 148.5t-36 148.5t-98 99t-139 34.5q-79 0 -142 -34.5t-99 -98.5t-36 -149z" />
<glyph unicode="e" horiz-adv-x="1240" d="M66 529q0 153 72 279.5t201 199.5t293 73q152 0 275 -66t194.5 -188t72.5 -283l-1 -29q-2 -18 -12.5 -28.5t-29.5 -10.5h-699q-17 0 -28 -8.5t-11 -23.5q0 -3 2 -13q18 -92 86 -144t162 -52q67 0 123 26t94 77q17 23 36 23q7 0 19 -5l183 -77q28 -11 28 -32q0 -6 -5 -16 q-66 -118 -190.5 -184.5t-287.5 -66.5q-171 0 -302 72.5t-203 198t-72 278.5zM406 696q0 -14 10.5 -22t28.5 -8h371q18 0 28 7.5t10 21.5q0 7 -3 16q-24 66 -81 102.5t-135 36.5t-137 -36t-88 -101q-4 -8 -4 -17z" />
<glyph unicode="f" horiz-adv-x="781" d="M39 883v135q0 20 10.5 30.5t29.5 10.5h82q41 0 41 41v60q0 202 88 299t270 97q80 0 159 -20q35 -9 35 -45v-159q0 -18 -9 -27.5t-25 -9.5q-8 0 -12 1q-33 7 -57 7q-57 0 -89 -32t-32 -98v-73q0 -20 10.5 -30.5t30.5 -10.5h147q20 0 30.5 -10.5t10.5 -30.5v-135 q0 -20 -10.5 -30.5t-30.5 -10.5h-147q-19 0 -30 -10.5t-11 -30.5v-760q0 -41 -41 -41h-246q-41 0 -41 41v760q0 20 -10.5 30.5t-30.5 10.5h-82q-40 0 -40 41z" />
<glyph unicode="g" horiz-adv-x="1369" d="M69 548q0 155 66 276t179.5 188t251.5 67q163 0 272 -97q17 -15 28 -15q9 0 14.5 8.5t5.5 24.5v18q0 20 10.5 30.5t30.5 10.5h245q20 0 30.5 -10.5t10.5 -30.5v-943q0 -186 -71.5 -314.5t-205 -193.5t-319.5 -65q-139 0 -267 45t-242 159q-13 13 -13 27q0 16 16 30 l139 133q15 13 28 13q15 0 30 -17q125 -136 304 -136q130 0 202 73t72 211v48q0 15 -5.5 23.5t-14.5 8.5q-11 0 -28 -14q-103 -95 -267 -95q-140 0 -254.5 68.5t-181 191t-66.5 277.5zM396 548q0 -80 34 -140t93 -92.5t132 -32.5t132 32.5t93.5 92.5t34.5 140t-34.5 141 t-93.5 94t-132 33t-132 -33t-93 -93.5t-34 -141.5z" />
<glyph unicode="h" horiz-adv-x="1287" d="M156 41v1454q0 41 41 41h245q41 0 41 -41v-516q0 -32 18 -32q12 0 28 16q53 56 123.5 86t154.5 30q165 0 255 -100t90 -286v-652q0 -20 -10.5 -30.5t-30.5 -10.5h-246q-41 0 -41 41v587q0 101 -40.5 141t-112.5 40q-89 0 -138.5 -52.5t-49.5 -158.5v-557q0 -41 -41 -41 h-245q-41 0 -41 41z" />
<glyph unicode="i" horiz-adv-x="637" d="M138 1376q0 49 24.5 90.5t66.5 65.5t92 24q48 0 89.5 -24t66 -65.5t24.5 -90.5q0 -50 -24.5 -91.5t-66 -65.5t-89.5 -24q-50 0 -92 24t-66.5 65.5t-24.5 91.5zM156 41v977q0 20 10.5 30.5t30.5 10.5h243q20 0 30.5 -10.5t10.5 -30.5v-977q0 -41 -41 -41h-243 q-41 0 -41 41z" />
<glyph unicode="j" horiz-adv-x="641" d="M-111 -283q0 38 39 41q109 11 168.5 83t59.5 199v978q0 20 10.5 30.5t30.5 10.5h247q20 0 30.5 -10.5t10.5 -30.5v-943q0 -179 -66 -305t-190.5 -193t-298.5 -74q-20 -1 -30.5 9.5t-10.5 30.5v174zM139 1376q0 49 25 90.5t67 65.5t92 24q48 0 89.5 -24t66 -65.5 t24.5 -90.5t-24.5 -91t-66 -66t-89.5 -24q-50 0 -92 24t-67 65.5t-25 91.5z" />
<glyph unicode="k" horiz-adv-x="1311" d="M156 41v1454q0 41 41 41h245q41 0 41 -41v-799q0 -17 6.5 -26.5t16.5 -9.5q14 0 28 17l319 359q20 23 51 23h289q16 0 25 -6.5t9 -17.5q0 -13 -12 -27l-386 -421q-13 -15 -13 -28q0 -14 13 -29l435 -479q12 -13 12 -26q0 -12 -9 -18.5t-26 -6.5h-311q-31 0 -51 23 l-345 401q-14 17 -28 17q-10 0 -16.5 -9.5t-6.5 -26.5v-364q0 -41 -41 -41h-245q-41 0 -41 41z" />
<glyph unicode="l" horiz-adv-x="639" d="M156 41v1454q0 41 41 41h245q41 0 41 -41v-1454q0 -41 -41 -41h-245q-41 0 -41 41z" />
<glyph unicode="m" horiz-adv-x="1908" d="M156 41v977q0 20 10.5 30.5t30.5 10.5h245q20 0 30.5 -10.5t10.5 -30.5v-39q0 -33 18 -33q11 0 28 17q53 56 119.5 86t144.5 30q196 0 280 -131q12 -20 25 -20q12 0 25 16q56 65 131 100t164 35q107 0 186.5 -40t123 -119t43.5 -191v-688q0 -20 -10.5 -30.5t-30.5 -10.5 h-245q-41 0 -41 41v607q0 78 -42 123t-112 45q-78 0 -120 -52t-42 -135v-588q0 -20 -10.5 -30.5t-30.5 -10.5h-247q-41 0 -41 41v607q0 78 -41 123t-112 45q-78 0 -120.5 -52t-42.5 -135v-588q0 -41 -41 -41h-245q-41 0 -41 41z" />
<glyph unicode="n" horiz-adv-x="1289" d="M156 41v977q0 20 10.5 30.5t30.5 10.5h247q20 0 30.5 -10.5t10.5 -30.5v-35q0 -33 18 -33q11 0 28 17q110 112 276 112q167 0 256.5 -100t89.5 -286v-652q0 -41 -41 -41h-248q-20 0 -30.5 10.5t-10.5 30.5v587q0 103 -40.5 142t-116.5 39q-83 0 -132 -53.5t-49 -157.5 v-557q0 -20 -10.5 -30.5t-30.5 -10.5h-247q-41 0 -41 41z" />
<glyph unicode="o" horiz-adv-x="1307" d="M66 530q0 159 76.5 284t210 195t300.5 70q166 0 300.5 -70t211 -195t76.5 -284t-76.5 -284.5t-211 -195.5t-300.5 -70q-167 0 -300.5 70t-210 195.5t-76.5 284.5zM376 530q0 -82 36.5 -144.5t99.5 -96.5t140 -34q76 0 139.5 34.5t100.5 97t37 143.5q0 80 -37 143 t-100.5 98t-139.5 35q-77 0 -140 -34.5t-99.5 -97t-36.5 -144.5z" />
<glyph unicode="p" horiz-adv-x="1392" d="M156 -457v1475q0 20 10.5 30.5t30.5 10.5h245q20 0 30.5 -10.5t10.5 -30.5v-16q0 -32 19 -32q12 0 28 12q112 97 280 97q139 0 256.5 -70.5t186 -196.5t68.5 -285t-68.5 -283.5t-185 -194t-257.5 -69.5q-83 0 -154.5 23.5t-125.5 69.5q-17 14 -28 14q-19 0 -19 -32v-512 q0 -20 -10.5 -30.5t-30.5 -10.5h-245q-20 0 -30.5 10.5t-10.5 30.5zM444 527q0 -85 36 -149t98.5 -98.5t140.5 -34.5t140.5 34.5t98.5 98.5t36 149t-36 149t-98.5 98.5t-140.5 34.5t-140.5 -34.5t-98.5 -98.5t-36 -149z" />
<glyph unicode="q" horiz-adv-x="1392" d="M71 527q0 159 68.5 285t186 196.5t256.5 70.5q86 0 156.5 -25.5t123.5 -71.5q17 -12 28 -12q19 0 19 32v16q0 20 10.5 30.5t30.5 10.5h245q20 0 30.5 -10.5t10.5 -30.5v-1475q0 -20 -10.5 -30.5t-30.5 -10.5h-245q-20 0 -30.5 10.5t-10.5 30.5v512q0 32 -19 32 q-11 0 -28 -14q-54 -46 -125.5 -69.5t-154.5 -23.5q-141 0 -257.5 69.5t-185 194t-68.5 283.5zM398 527q0 -85 36 -149t98.5 -98.5t140.5 -34.5t140.5 34.5t98.5 98.5t36 149t-36 149t-98.5 98.5t-140.5 34.5t-140.5 -34.5t-98.5 -98.5t-36 -149z" />
<glyph unicode="r" horiz-adv-x="863" d="M156 41v977q0 20 10.5 30.5t30.5 10.5h229q20 0 30.5 -10.5t10.5 -30.5v-92q0 -33 18 -33q12 0 27 18q48 57 117 98t155 55q4 1 10 1q17 0 26 -10.5t9 -28.5v-227q0 -19 -10.5 -30t-30.5 -11q-153 -8 -229 -74.5t-76 -202.5v-440q0 -41 -41 -41h-245q-41 0 -41 41z" />
<glyph unicode="s" horiz-adv-x="1001" d="M68 124q0 12 7 25l88 156q11 21 29 21q13 0 26 -10q69 -43 148 -70.5t140 -27.5q52 0 82 20.5t30 58.5q0 29 -20.5 49.5t-52.5 34t-91 32.5l-43 15q-94 32 -155.5 64.5t-106 94.5t-44.5 161q0 109 55 183.5t147 111t205 36.5q92 0 183 -23t171 -67q22 -12 22 -30 q0 -12 -9 -26l-88 -138q-13 -20 -31 -20q-13 0 -24 7q-57 29 -119.5 48t-108.5 19q-45 0 -72 -17.5t-27 -49.5q0 -25 20 -43t51.5 -30t91.5 -30l56 -17q91 -31 154 -66t106 -101t43 -169q0 -114 -54 -191.5t-149 -116t-217 -38.5q-110 0 -221.5 30t-201.5 83q-20 11 -20 31z " />
<glyph unicode="t" horiz-adv-x="835" d="M33 883v135q0 20 11 30.5t30 10.5h82q20 0 30.5 10.5t10.5 30.5v211q0 20 10.5 30.5t30.5 10.5h246q20 0 30.5 -10.5t10.5 -30.5v-211q0 -41 41 -41h146q20 0 30.5 -10.5t10.5 -30.5v-135q0 -41 -41 -41h-146q-20 0 -30.5 -10.5t-10.5 -30.5v-421q0 -68 32 -101t87 -33 h63q20 0 30.5 -10.5t10.5 -30.5v-164q0 -41 -41 -41h-152q-170 0 -264 89.5t-94 253.5v458q0 20 -10.5 30.5t-30.5 10.5h-82q-20 0 -30.5 10.5t-10.5 30.5z" />
<glyph unicode="u" horiz-adv-x="1271" d="M125 401v617q0 20 10.5 30.5t30.5 10.5h244q20 0 30.5 -10.5t10.5 -30.5v-594q0 -84 50.5 -127.5t132.5 -43.5t133 43.5t51 127.5v594q0 20 10.5 30.5t30.5 10.5h246q20 0 30.5 -10.5t10.5 -30.5v-617q0 -129 -60 -224t-175 -146t-277 -51q-161 0 -275.5 51t-174 145.5 t-59.5 224.5z" />
<glyph unicode="v" horiz-adv-x="1190" d="M26 1032q0 13 9.5 20t26.5 7h261q17 0 29 -9t17 -25l198 -578q10 -28 27 -28t26 28l202 579q9 33 46 33h260q17 0 26.5 -7t9.5 -20q0 -8 -5 -20l-414 -981q-11 -31 -47 -31h-209q-35 0 -48 32l-410 980q-5 12 -5 20z" />
<glyph unicode="w" horiz-adv-x="1798" d="M32 1028q0 14 10 22.5t27 8.5h255q37 0 48 -35l155 -540q9 -29 26 -29q18 0 27 27l187 543q11 34 46 34h171q17 0 29 -9t16 -25l187 -542q4 -13 11.5 -20t15.5 -7t15 7.5t11 21.5l156 539q11 35 47 35h257q17 0 26 -8t9 -23q0 -10 -2 -16l-335 -981q-13 -33 -46 -33h-226 q-36 0 -45 34l-184 559q-4 14 -11 21t-15 7q-18 0 -28 -28l-187 -559q-4 -16 -16.5 -25t-29.5 -9h-227q-34 0 -45 33l-332 981q-3 9 -3 16z" />
<glyph unicode="x" horiz-adv-x="1311" d="M44 24q0 12 12 27l378 451q12 15 12 29q0 13 -12 28l-378 449q-12 15 -12 27q0 11 9 17.5t26 6.5h295q31 0 49 -25l203 -254q13 -16 29 -16q15 0 28 16l205 255q18 24 50 24h294q17 0 26 -6.5t9 -17.5q0 -12 -12 -27l-379 -451q-13 -16 -13 -28q0 -11 13 -29l379 -449 q12 -15 12 -27q0 -11 -9 -17.5t-26 -6.5h-296q-31 0 -50 25l-201 251q-14 17 -28 17q-15 0 -29 -17l-202 -252q-18 -24 -49 -24h-298q-17 0 -26 6.5t-9 17.5z" />
<glyph unicode="y" horiz-adv-x="1155" d="M27 1031q0 13 9.5 20.5t25.5 7.5h273q17 0 29 -9t16 -26l180 -555q4 -13 11 -20t15 -7t15.5 7t11.5 20l182 555q4 17 16 26t29 9h253q18 0 27 -7.5t9 -21.5q0 -9 -3 -18l-592 -1477q-6 -15 -18.5 -24t-28.5 -9h-248q-18 0 -27 7.5t-9 21.5q0 9 3 18l198 499q6 14 6 26 t-6 27l-373 911q-4 9 -4 19z" />
<glyph unicode="z" horiz-adv-x="1079" d="M66 27q0 9 8 22l438 710q8 13 8 23q0 12 -9.5 19t-26.5 7h-357q-41 0 -41 41v169q0 20 10.5 30.5t30.5 10.5h840q16 0 25.5 -7.5t9.5 -19.5q0 -11 -7 -22l-440 -710q-8 -13 -8 -23q0 -12 9.5 -19t26.5 -7h382q20 0 30.5 -10.5t10.5 -30.5v-169q0 -41 -41 -41h-863 q-17 0 -26.5 7.5t-9.5 19.5z" />
<glyph unicode="{" horiz-adv-x="738" d="M50 624v138q0 36 33 46q52 19 75.5 41.5t34 72.5t10.5 152v465q0 95 39.5 171.5t115 121.5t177.5 45h95q20 0 30.5 -10.5t10.5 -30.5v-187q0 -20 -9 -30.5t-25 -10.5h-37q-44 0 -70.5 -28.5t-26.5 -88.5v-413q0 -103 -15.5 -171.5t-60 -118.5t-128.5 -79q-20 -8 -20 -15 t20 -15q84 -30 128.5 -80.5t60 -119t15.5 -170.5v-415q0 -65 22 -90.5t75 -25.5h30q41 0 41 -41v-185q0 -41 -41 -41h-95q-102 0 -177.5 44.5t-115 121.5t-39.5 171v465q0 102 -10.5 151t-34 71t-76.5 43q-32 10 -32 46z" />
<glyph unicode="|" horiz-adv-x="670" d="M234 -266v1761q0 20 10.5 30.5t30.5 10.5h119q41 0 41 -41v-1761q0 -41 -41 -41h-119q-20 0 -30.5 10.5t-10.5 30.5z" />
<glyph unicode="}" horiz-adv-x="738" d="M67 -263q0 20 9.5 30.5t27.5 10.5h34q53 0 75 25.5t22 90.5v415q0 103 15.5 171t60 118.5t129.5 80.5q20 7 20 15t-20 15q-85 29 -129.5 79t-60 118.5t-15.5 171.5v413q0 60 -26 88.5t-71 28.5h-30q-20 0 -30.5 10.5t-10.5 30.5v187q0 20 10.5 30.5t30.5 10.5h95 q102 0 177.5 -45t115 -121.5t39.5 -171.5v-465q0 -102 10.5 -152t34 -72.5t75.5 -41.5q34 -10 34 -46v-138q0 -35 -32 -46q-53 -21 -77 -43t-34.5 -71t-10.5 -151v-465q0 -94 -39.5 -171t-115 -121.5t-177.5 -44.5h-95q-41 0 -41 41v185z" />
<glyph unicode="~" horiz-adv-x="1415" d="M172 359q2 112 45 197t124 132t191 47q91 0 150.5 -34.5t116.5 -111.5q22 -29 42 -44.5t50 -15.5q45 0 78.5 38t37.5 103q3 42 41 42h148q19 0 30 -11t11 -32q2 -104 -39 -187t-115.5 -130.5t-170.5 -47.5q-68 0 -122.5 22t-90.5 51t-72 67q-6 5 -10.5 10t-9.5 9 q-43 41 -81 41q-53 0 -82.5 -41t-37.5 -105q-2 -19 -12.5 -29.5t-28.5 -10.5h-152q-20 0 -31 11t-10 30z" />
<glyph unicode="&#xa1;" horiz-adv-x="733" d="M181 864q0 49 24.5 90t66 65.5t90.5 24.5t91 -24.5t66.5 -65.5t24.5 -90q0 -50 -24.5 -91.5t-66.5 -66t-91 -24.5t-90.5 24.5t-66 66t-24.5 91.5zM197 451q0 20 11 30.5t30 10.5h247q20 0 30.5 -10.5t10.5 -30.5v-922q0 -41 -41 -41h-247q-20 0 -30.5 10.5t-10.5 30.5 v922z" />
<glyph unicode="&#xa2;" horiz-adv-x="1318" d="M130 770q0 133 53.5 242.5t149.5 184t222 103.5q36 9 36 45v150q0 20 10.5 30.5t30.5 10.5h107q41 0 41 -41v-140q0 -37 39 -43q93 -13 175 -52.5t145 -98.5q14 -14 14 -27q0 -16 -17 -31l-164 -142q-14 -11 -26 -11q-15 0 -31 16q-38 38 -88.5 58.5t-110.5 20.5 q-77 0 -140 -34t-99.5 -96.5t-36.5 -144.5t36.5 -144.5t99.5 -96.5t140 -34q60 0 110.5 20.5t88.5 58.5q16 16 31 16q12 0 26 -11l164 -142q18 -16 18 -32q0 -11 -11 -22q-63 -61 -146 -101t-178 -53q-39 -7 -39 -43v-145q0 -41 -41 -41h-107q-20 0 -30.5 10.5t-10.5 30.5 v154q0 36 -36 45q-126 29 -222 103.5t-149.5 184.5t-53.5 242z" />
<glyph unicode="&#xa3;" horiz-adv-x="1489" d="M151 41v117q0 17 8 28.5t20 15.5l27 6q55 13 82 47t27 90v235q0 41 -41 41h-82q-41 0 -41 41v154q0 40 41 40h82q20 0 30.5 10.5t10.5 30.5v108q0 158 69.5 283.5t192 196.5t277.5 71q108 0 210 -44t180.5 -123t116.5 -180q3 -9 3 -16q0 -22 -27 -35l-205 -87 q-12 -5 -19 -5q-23 0 -32 33q-24 86 -86.5 136t-140.5 50q-111 0 -173 -72t-62 -208v-108q0 -19 11 -30t30 -11h234q20 0 30.5 -10.5t10.5 -29.5v-154q0 -20 -10.5 -30.5t-30.5 -10.5h-234q-20 0 -30.5 -10.5t-10.5 -30.5v-261q0 -19 10.5 -29.5t30.5 -10.5h592 q20 0 30.5 -10.5t10.5 -30.5v-197q0 -41 -41 -41h-1060q-41 0 -41 41z" />
<glyph unicode="&#xa4;" horiz-adv-x="1443" d="M193 378q0 15 13 28l56 55q14 13 14 30q0 13 -7 26q-54 105 -54 225q0 122 54 228q7 13 7 26q0 17 -14 30l-54 53q-13 14 -13 28q0 16 13 30l114 120q14 15 30 15q14 0 27 -13l59 -59q14 -14 31 -14q12 0 25 7q106 55 229 55q121 0 225 -55q11 -7 24 -7q17 0 32 15l56 56 q14 14 29 14q16 0 29 -14l117 -116q14 -14 14 -29q0 -13 -14 -29l-55 -55q-15 -13 -15 -31q0 -12 7 -25q53 -105 53 -229q0 -123 -53 -229q-7 -11 -7 -24q0 -17 15 -31l53 -53q14 -13 14 -28t-14 -30l-113 -121q-15 -15 -30 -15q-13 0 -27 14l-59 59q-16 14 -32 14 q-13 0 -26 -7q-106 -53 -226 -53t-228 53q-13 7 -25 7q-17 0 -31 -14l-59 -59q-13 -14 -28 -14t-30 15l-113 121q-13 16 -13 30zM460 739q0 -73 36 -132t95.5 -92t128.5 -33q73 0 133 36.5t94 97t34 129.5q0 70 -35.5 129.5t-95.5 94t-130 34.5q-71 0 -130.5 -36 t-94.5 -96.5t-35 -131.5z" />
<glyph unicode="&#xa5;" horiz-adv-x="1580" d="M107 1510q0 12 9 19t26 7h290q18 0 29 -6t20 -21l282 -449q14 -20 29 -20q17 0 29 20l282 449q9 15 20.5 21t28.5 6h287q16 0 25.5 -7.5t9.5 -18.5t-9 -23l-448 -677q-8 -12 -8 -23q0 -12 9 -19t26 -7h197q20 0 30.5 -10.5t10.5 -30.5v-131q0 -20 -10.5 -30.5 t-30.5 -10.5h-238q-41 0 -41 -41v-55q0 -41 41 -41h238q20 0 30.5 -10.5t10.5 -30.5v-116q0 -19 -10.5 -30t-30.5 -11h-238q-41 0 -41 -41v-131q0 -20 -10.5 -30.5t-30.5 -10.5h-258q-20 0 -30.5 10.5t-10.5 30.5v131q0 41 -41 41h-241q-20 0 -30.5 10.5t-10.5 30.5v116 q0 20 10.5 30.5t30.5 10.5h241q41 0 41 41v55q0 41 -41 41h-241q-20 0 -30.5 10.5t-10.5 30.5v131q0 20 10.5 30.5t30.5 10.5h196q17 0 26 7t9 19q0 11 -8 23l-448 677q-8 11 -8 23z" />
<glyph unicode="&#xa6;" horiz-adv-x="670" d="M234 -266v655q0 20 10.5 30.5t30.5 10.5h119q41 0 41 -41v-655q0 -41 -41 -41h-119q-20 0 -30.5 10.5t-10.5 30.5zM234 840v655q0 20 10.5 30.5t30.5 10.5h119q41 0 41 -41v-655q0 -41 -41 -41h-119q-20 0 -30.5 10.5t-10.5 30.5z" />
<glyph unicode="&#xa7;" horiz-adv-x="1035" d="M146 794q0 123 77 211q14 16 14 29q0 12 -11 28q-58 69 -58 175q0 104 50 175t130.5 105.5t172.5 34.5q87 0 167.5 -36t140.5 -98q12 -13 12 -26q0 -17 -17 -31l-92 -81q-13 -12 -28 -12q-14 0 -31 15q-74 71 -155 72q-56 0 -91 -25t-35 -80q0 -39 24 -66.5t60 -46 t102 -45.5q97 -39 158.5 -75.5t106 -103.5t44.5 -172q0 -126 -75 -210q-14 -16 -14 -29q0 -12 11 -28q56 -67 56 -168q0 -107 -49 -179.5t-129 -107.5t-173 -35q-90 0 -169.5 35.5t-138.5 96.5q-12 14 -12 27q0 16 17 31l94 84q14 11 26 11q17 0 33 -16q75 -72 157 -72 q54 0 87.5 25.5t33.5 78.5q0 39 -24.5 67t-61 47t-102.5 46q-97 39 -158 75t-105.5 103t-44.5 171zM366 792q0 -38 24 -65.5t60 -46.5t101 -46q19 -8 31 -8t22 5q30 15 47.5 46.5t17.5 66.5q0 38 -23.5 66t-59.5 47.5t-97 44.5q-19 8 -32 8q-11 0 -20 -4q-33 -12 -52 -44 t-19 -70z" />
<glyph unicode="&#xa8;" horiz-adv-x="970" d="M113 1402q0 42 21 77.5t57 56t78 20.5q41 0 77 -20.5t57 -56t21 -77.5t-21 -77.5t-57 -56.5t-77 -21q-42 0 -78 21t-57 56.5t-21 77.5zM547 1402q0 42 21 77.5t57 56t78 20.5t77.5 -20.5t56 -56t20.5 -77.5t-20.5 -77.5t-56 -56.5t-77.5 -21t-78 21t-57 56.5t-21 77.5z " />
<glyph unicode="&#xa9;" horiz-adv-x="1828" d="M126 768q0 213 106.5 394t287.5 287.5t394 106.5t394.5 -106.5t288 -287.5t106.5 -394t-106.5 -394t-288 -287.5t-394.5 -106.5t-394 106.5t-287.5 287.5t-106.5 394zM298 768q0 -170 82 -311t223 -223t311 -82t311.5 82t223.5 223t82 311t-82 311t-223.5 223t-311.5 82 t-311 -82t-223 -223t-82 -311zM481 768q0 120 59 220.5t159.5 159t220.5 58.5q91 0 173 -35t141 -98q13 -13 13 -27q0 -16 -18 -30l-80 -61q-12 -11 -27 -11q-16 0 -31 15q-33 33 -77 50t-94 17q-71 0 -128.5 -33t-90.5 -92t-33 -133q0 -73 33 -131.5t90.5 -91.5t128.5 -33 q50 0 94 17t77 50q15 15 31 15q15 0 27 -11l80 -61q18 -15 18 -31q0 -11 -11 -25q-59 -63 -142.5 -99.5t-173.5 -36.5q-120 0 -220.5 59t-159.5 159.5t-59 219.5z" />
<glyph unicode="&#xaa;" horiz-adv-x="941" d="M95 1229q0 88 40.5 161t110 115.5t152.5 42.5q104 0 170 -71q11 -11 18 -11q11 0 11 19v10q0 41 41 41h101q41 0 41 -41v-532q0 -41 -41 -41h-101q-41 0 -41 41v8q0 19 -11 19q-9 0 -17 -11q-69 -70 -171 -70q-83 0 -152.5 43t-110 116t-40.5 161zM277 1229 q0 -43 21.5 -80t58.5 -58.5t80 -21.5t80 21.5t58.5 58.5t21.5 80q0 44 -21.5 80.5t-58.5 57.5t-80 21t-80 -21t-58.5 -57.5t-21.5 -80.5z" />
<glyph unicode="&#xab;" horiz-adv-x="1179" d="M65 572q0 13 12 28l267 324q18 24 51 24h162q17 0 26.5 -6.5t9.5 -17.5q0 -12 -12 -27l-246 -297q-12 -15 -12 -28q0 -14 12 -29l246 -297q12 -15 12 -27q0 -11 -9.5 -17.5t-26.5 -6.5h-162q-33 0 -51 24l-267 324q-12 15 -12 29zM557 572q0 13 12 28l266 324 q18 24 51 24h165q17 0 26.5 -6.5t9.5 -17.5q0 -12 -12 -27l-246 -297q-12 -15 -12 -28q0 -14 12 -29l246 -297q12 -15 12 -27q0 -11 -9.5 -17.5t-26.5 -6.5h-165q-33 0 -51 24l-266 324q-12 15 -12 29z" />
<glyph unicode="&#xac;" horiz-adv-x="1735" d="M128 732v182q0 20 11 30.5t30 10.5h1292q20 0 30.5 -10.5t10.5 -30.5v-707q0 -20 -10.5 -30.5t-30.5 -10.5h-180q-19 0 -30 11t-11 30v443q0 20 -10.5 30.5t-30.5 10.5h-1030q-20 0 -30.5 10.5t-10.5 30.5z" />
<glyph unicode="&#xad;" horiz-adv-x="1024" d="M154 436v193q0 20 10.5 30.5t30.5 10.5h634q20 0 30.5 -10.5t10.5 -30.5v-193q0 -41 -41 -41h-634q-41 0 -41 41z" />
<glyph unicode="&#xae;" horiz-adv-x="1828" d="M126 768q0 213 106.5 394t287.5 287.5t394 106.5t394.5 -106.5t288 -287.5t106.5 -394t-106.5 -394t-288 -287.5t-394.5 -106.5t-394 106.5t-287.5 287.5t-106.5 394zM298 768q0 -170 82 -311t223 -223t311 -82t311.5 82t223.5 223t82 311t-82 311t-223.5 223t-311.5 82 t-311 -82t-223 -223t-82 -311zM634 376v786q0 41 41 41h327q72 0 131 -35t93.5 -94.5t34.5 -130.5q0 -65 -28 -119.5t-77 -89.5q-21 -16 -21 -36q0 -10 4 -19l125 -297q5 -12 5 -20q0 -13 -9.5 -20t-26.5 -7h-118q-16 0 -28.5 8.5t-18.5 23.5l-112 287q-14 32 -48 32h-44 q-20 0 -30.5 -10.5t-10.5 -30.5v-269q0 -41 -41 -41h-107q-41 0 -41 41zM823 885q0 -20 10.5 -30.5t30.5 -10.5h108q46 0 76.5 26.5t30.5 68.5q0 43 -30.5 70.5t-76.5 27.5h-108q-20 0 -30.5 -10.5t-10.5 -30.5v-111z" />
<glyph unicode="&#xaf;" horiz-adv-x="939" d="M136 1259v108q0 20 10.5 30.5t30.5 10.5h585q20 0 30.5 -10.5t10.5 -30.5v-108q0 -41 -41 -41h-585q-41 0 -41 41z" />
<glyph unicode="&#xb0;" horiz-adv-x="947" d="M162 1246q0 85 41.5 156t113 112.5t156.5 41.5t156 -41.5t112.5 -112.5t41.5 -156q0 -86 -41.5 -157t-112.5 -112t-156 -41t-156.5 41t-113 112t-41.5 157zM341 1246q0 -57 37.5 -95.5t94.5 -38.5q56 0 94 39t38 95t-38 94t-94 38q-57 0 -94.5 -38t-37.5 -94z" />
<glyph unicode="&#xb1;" horiz-adv-x="1311" d="M142 40v166q0 41 41 41h938q41 0 41 -41v-166q0 -20 -10.5 -30.5t-30.5 -10.5h-938q-20 0 -30.5 10.5t-10.5 30.5zM155 798v166q0 41 41 41h298q20 0 30.5 10.5t10.5 30.5v298q0 41 40 41h167q20 0 30.5 -10.5t10.5 -30.5v-298q0 -41 41 -41h297q41 0 41 -41v-166 q0 -41 -41 -41h-297q-41 0 -41 -41v-298q0 -19 -10.5 -30t-30.5 -11h-167q-19 0 -29.5 10.5t-10.5 30.5v298q0 20 -10.5 30.5t-30.5 10.5h-298q-41 0 -41 41z" />
<glyph unicode="&#xb4;" horiz-adv-x="495" d="M48 1213q0 10 10 25l209 298q13 19 30 19q11 0 26 -10l92 -64q19 -12 19 -30q0 -14 -11 -28l-181 -211q-17 -23 -51 -23h-108q-17 0 -26 6.5t-9 17.5z" />
<glyph unicode="&#xb5;" horiz-adv-x="1399" d="M233 -471v1454q0 41 41 41h200q41 0 41 -41v-555q0 -55 27 -101t73 -73t101 -27q60 0 110.5 27t79.5 73t29 101v555q0 41 41 41h201q20 0 30.5 -10.5t10.5 -30.5v-942q0 -20 -10.5 -30.5t-30.5 -10.5h-201q-41 0 -41 41v11q0 16 -5.5 24.5t-14.5 8.5q-13 0 -29 -13 q-51 -45 -115.5 -68.5t-136.5 -23.5q-75 0 -146 29q-10 5 -22 5t-19 -9t-7 -25v-451q0 -41 -41 -41h-125q-41 0 -41 41z" />
<glyph unicode="&#xb6;" horiz-adv-x="1239" d="M91 1194q0 165 96.5 253.5t267.5 88.5h154q20 0 30.5 -10.5t10.5 -30.5v-1761q0 -20 -10.5 -30.5t-30.5 -10.5h-81q-41 0 -41 41v1075q0 19 -10.5 30.5t-29.5 12.5q-23 0 -44 3q-153 16 -232.5 103t-79.5 236zM840 -266v1761q0 20 10.5 30.5t30.5 10.5h83q41 0 41 -41 v-1761q0 -41 -41 -41h-83q-20 0 -30.5 10.5t-10.5 30.5z" />
<glyph unicode="&#xb7;" horiz-adv-x="624" d="M181 737q0 35 18 65.5t48.5 48.5t64.5 18t64.5 -18t49 -48.5t18.5 -65.5q0 -36 -18.5 -66t-49 -47.5t-64.5 -17.5q-35 0 -65 17.5t-48 47.5t-18 66z" />
<glyph unicode="&#xb8;" horiz-adv-x="623" d="M86 -392q0 22 29 32l67 23q9 3 16 3q10 0 18.5 -5.5t19.5 -17.5q31 -29 72 -29q34 0 59 22.5t25 58.5q0 39 -25 60.5t-60 21.5q-25 0 -47 -11q-22 -12 -35 -12q-11 0 -21 6l-51 29q-22 13 -22 32q0 8 7 24l86 159h152l-39 -68q-22 -38 -16 -44q1 -3 9 -4t18 -1 q55 0 99 -24.5t69 -68t25 -99.5q0 -63 -30 -115t-82 -82t-115 -30q-76 0 -134 33t-88 88q-6 10 -6 19z" />
<glyph unicode="&#xba;" horiz-adv-x="909" d="M112 1229q0 88 45 161t123.5 115.5t172.5 42.5q95 0 173.5 -42.5t124.5 -115.5t46 -161t-46 -161t-125 -116t-173 -43t-172.5 42.5t-123.5 116t-45 161.5zM294 1229q0 -43 21.5 -80t58 -58.5t79.5 -21.5t80 21.5t59 58.5t22 80q0 44 -22 80.5t-59 57.5t-80 21t-79.5 -21 t-58 -57.5t-21.5 -80.5z" />
<glyph unicode="&#xbb;" horiz-adv-x="1179" d="M93 219q0 13 11 27l246 297q12 15 12 29q0 13 -12 28l-246 297q-11 14 -11 27q0 11 9.5 17.5t26.5 6.5h161q32 0 52 -24l266 -324q12 -15 12 -28q0 -14 -12 -29l-266 -324q-19 -24 -52 -24h-161q-17 0 -26.5 6.5t-9.5 17.5zM584 219q0 12 12 27l245 297q13 14 13 29 q0 14 -13 28l-245 297q-12 15 -12 27q0 11 9.5 17.5t26.5 6.5h164q32 0 52 -24l266 -324q12 -15 12 -28q0 -14 -12 -29l-266 -324q-19 -24 -52 -24h-164q-17 0 -26.5 6.5t-9.5 17.5z" />
<glyph unicode="&#xbc;" horiz-adv-x="1692" d="M13 1386q0 8 7 15l183 130q5 5 15 5h156q6 0 9.5 -3.5t3.5 -8.5v-897q0 -13 -13 -13h-167q-12 0 -12 13l1 730l-167 -130q-4 -4 -8 -4q-7 0 -7 11zM225 28q0 11 7 21l824 1458q14 29 49 29h120q16 0 26 -8t10 -20q0 -11 -7 -21l-824 -1458q-14 -29 -49 -29h-120 q-16 0 -26 8t-10 20zM940 207v145q0 7 5 15l343 547q2 4 6.5 6t8.5 2h229q5 0 8.5 -3.5t3.5 -9.5v-571h82q5 0 8.5 -3.5t3.5 -8.5v-119q0 -12 -12 -12h-82v-183q0 -5 -3.5 -8.5t-8.5 -3.5h-161q-5 0 -8.5 3.5t-3.5 8.5v183h-407q-12 0 -12 12zM1097 338h262v440z" />
<glyph unicode="&#xbd;" horiz-adv-x="1719" d="M13 1386q0 8 7 15l183 130q5 5 15 5h156q6 0 9.5 -3.5t3.5 -8.5v-897q0 -13 -13 -13h-167q-12 0 -12 13l1 730l-167 -130q-4 -4 -8 -4q-7 0 -7 11zM225 28q0 11 7 21l824 1458q14 29 49 29h120q16 0 26 -8t10 -20q0 -11 -7 -21l-824 -1458q-14 -29 -49 -29h-120 q-16 0 -26 8t-10 20zM1026 12v159q0 9 9 15q176 113 268.5 198t122.5 142.5t30 109.5q0 82 -34.5 113t-84.5 28q-60 -5 -85.5 -42t-23.5 -94q-1 -5 -4.5 -8.5t-8.5 -3.5h-174q-6 0 -9.5 3.5t-2.5 8.5q0 84 42 151.5t115 105.5t163 38q88 0 154.5 -36t103 -100.5t36.5 -146.5 q0 -131 -98 -260.5t-299 -242.5h399q5 0 8.5 -3.5t3.5 -9.5v-125q0 -5 -3.5 -8.5t-8.5 -3.5h-606q-6 0 -9.5 3.5t-3.5 8.5z" />
<glyph unicode="&#xbe;" horiz-adv-x="1905" d="M38 861q0 5 3.5 8.5t8.5 3.5h174q13 0 13 -12q4 -50 35.5 -75t81.5 -25q58 0 91 34.5t33 99.5q0 125 -147 125h-27q-6 0 -9.5 3.5t-3.5 8.5v123q0 5 3.5 8.5t9.5 3.5h14q65 0 95.5 29.5t30.5 90.5q0 52 -27 80.5t-71 28.5q-45 0 -70.5 -24t-27.5 -81q0 -6 -3.5 -9.5 t-8.5 -3.5l-170 1q-5 0 -8.5 3.5t-3.5 8.5q3 78 41.5 136t104 89.5t146.5 31.5q80 0 143 -32.5t98.5 -90.5t35.5 -132q0 -54 -21 -98.5t-60 -75.5q63 -34 97.5 -89.5t34.5 -129.5q0 -81 -41.5 -149.5t-115 -108.5t-164.5 -40q-86 0 -156.5 33.5t-113 92.5t-45.5 133zM438 28 q0 11 7 21l824 1458q14 29 49 29h120q16 0 26 -8t10 -20q0 -11 -7 -21l-824 -1458q-14 -29 -49 -29h-120q-16 0 -26 8t-10 20zM1153 207v145q0 7 5 15l343 547q2 4 6.5 6t8.5 2h229q5 0 8.5 -3.5t3.5 -9.5v-571h82q5 0 8.5 -3.5t3.5 -8.5v-119q0 -12 -12 -12h-82v-183 q0 -5 -3.5 -8.5t-8.5 -3.5h-161q-5 0 -8.5 3.5t-3.5 8.5v183h-407q-12 0 -12 12zM1310 338h262v440z" />
<glyph unicode="&#xbf;" horiz-adv-x="1188" d="M72 -62q0 182 95.5 281.5t231.5 135.5q36 11 36 46v103q0 41 41 41h213q40 0 40 -41v-290q0 -20 -10.5 -30.5t-29.5 -10.5q-157 -5 -243.5 -55.5t-86.5 -176.5q0 -98 63 -150t160 -52q93 0 153.5 48t73.5 129q6 38 42 38h207q42 0 39 -41q-9 -130 -76.5 -230.5 t-181 -156.5t-256.5 -56q-144 0 -260.5 56.5t-183.5 162.5t-67 249zM395 866q0 49 24.5 90.5t65.5 65.5t90 24q50 0 91.5 -24t66 -65.5t24.5 -90.5q0 -50 -24.5 -91.5t-66 -66t-91.5 -24.5q-49 0 -90 24.5t-65.5 66t-24.5 91.5z" />
<glyph unicode="&#xc0;" horiz-adv-x="1623" d="M52 30q0 8 3 17l540 1457q12 32 47 32h337q35 0 47 -32l542 -1457q3 -9 3 -17q0 -14 -9.5 -22t-26.5 -8h-271q-34 0 -45 33l-84 238q-11 33 -45 33h-557q-34 0 -45 -33l-84 -238q-6 -18 -17 -25.5t-29 -7.5h-270q-17 0 -26.5 8t-9.5 22zM499 1928q0 18 19 30l92 64 q15 10 26 10q17 0 30 -19l209 -298q10 -15 10 -25q0 -11 -9 -17.5t-26 -6.5h-108q-34 0 -51 23l-181 211q-11 14 -11 28zM609 616q0 -14 9.5 -22t26.5 -8h333q35 0 35 31q0 10 -2 16l-173 494q-4 14 -11.5 21t-15.5 7q-17 0 -26 -28l-173 -494q-3 -9 -3 -17z" />
<glyph unicode="&#xc1;" horiz-adv-x="1623" d="M52 30q0 8 3 17l540 1457q12 32 47 32h337q35 0 47 -32l542 -1457q3 -9 3 -17q0 -14 -9.5 -22t-26.5 -8h-271q-34 0 -45 33l-84 238q-11 33 -45 33h-557q-34 0 -45 -33l-84 -238q-6 -18 -17 -25.5t-29 -7.5h-270q-17 0 -26.5 8t-9.5 22zM609 616q0 -14 9.5 -22t26.5 -8 h333q35 0 35 31q0 10 -2 16l-173 494q-4 14 -11.5 21t-15.5 7q-17 0 -26 -28l-173 -494q-3 -9 -3 -17zM993 1690q0 10 10 25l209 298q13 19 30 19q11 0 26 -10l92 -64q19 -12 19 -30q0 -14 -11 -28l-181 -211q-17 -23 -51 -23h-108q-17 0 -26 6.5t-9 17.5z" />
<glyph unicode="&#xc2;" horiz-adv-x="1623" d="M52 30q0 8 3 17l540 1457q12 32 47 32h337q35 0 47 -32l542 -1457q3 -9 3 -17q0 -14 -9.5 -22t-26.5 -8h-271q-34 0 -45 33l-84 238q-11 33 -45 33h-557q-34 0 -45 -33l-84 -238q-6 -18 -17 -25.5t-29 -7.5h-270q-17 0 -26.5 8t-9.5 22zM509 1737q0 12 10 25l174 226 q19 25 50 25h136q31 0 50 -25l174 -226q10 -13 10 -25q0 -11 -9 -17.5t-26 -6.5h-105q-32 0 -49 26l-84 120q-12 18 -29 18q-16 0 -28 -18l-85 -120q-17 -26 -49 -26h-105q-17 0 -26 6.5t-9 17.5zM609 616q0 -14 9.5 -22t26.5 -8h333q35 0 35 31q0 10 -2 16l-173 494 q-4 14 -11.5 21t-15.5 7q-17 0 -26 -28l-173 -494q-3 -9 -3 -17z" />
<glyph unicode="&#xc3;" horiz-adv-x="1623" d="M52 30q0 8 3 17l540 1457q12 32 47 32h337q35 0 47 -32l542 -1457q3 -9 3 -17q0 -14 -9.5 -22t-26.5 -8h-271q-34 0 -45 33l-84 238q-11 33 -45 33h-557q-34 0 -45 -33l-84 -238q-6 -18 -17 -25.5t-29 -7.5h-270q-17 0 -26.5 8t-9.5 22zM443 1761q10 119 71.5 191.5 t160.5 72.5q66 0 117.5 -32.5t85.5 -85.5q13 -20 27 -30.5t35 -10.5q31 0 48.5 27t21.5 77q1 20 12.5 30.5t30.5 10.5h85q20 0 30 -12t9 -35q-10 -117 -70.5 -188.5t-162.5 -71.5q-65 0 -114.5 30t-87.5 88q-14 22 -28 31.5t-32 9.5q-31 0 -49 -28t-24 -76 q-1 -20 -12.5 -30.5t-30.5 -10.5h-83q-43 0 -40 43zM609 616q0 -14 9.5 -22t26.5 -8h333q35 0 35 31q0 10 -2 16l-173 494q-4 14 -11.5 21t-15.5 7q-17 0 -26 -28l-173 -494q-3 -9 -3 -17z" />
<glyph unicode="&#xc4;" horiz-adv-x="1623" d="M52 30q0 8 3 17l540 1457q12 32 47 32h337q35 0 47 -32l542 -1457q3 -9 3 -17q0 -14 -9.5 -22t-26.5 -8h-271q-34 0 -45 33l-84 238q-11 33 -45 33h-557q-34 0 -45 -33l-84 -238q-6 -18 -17 -25.5t-29 -7.5h-270q-17 0 -26.5 8t-9.5 22zM439 1879q0 42 21 77.5t57 56 t78 20.5q41 0 77 -20.5t57 -56t21 -77.5t-21 -77.5t-57 -56.5t-77 -21q-42 0 -78 21t-57 56.5t-21 77.5zM609 616q0 -14 9.5 -22t26.5 -8h333q35 0 35 31q0 10 -2 16l-173 494q-4 14 -11.5 21t-15.5 7q-17 0 -26 -28l-173 -494q-3 -9 -3 -17zM873 1879q0 42 21 77.5t57 56 t78 20.5t77.5 -20.5t56 -56t20.5 -77.5t-20.5 -77.5t-56 -56.5t-77.5 -21t-78 21t-57 56.5t-21 77.5z" />
<glyph unicode="&#xc5;" horiz-adv-x="1623" d="M52 30q0 8 3 17l540 1457q12 32 47 32h337q35 0 47 -32l542 -1457q3 -9 3 -17q0 -14 -9.5 -22t-26.5 -8h-271q-34 0 -45 33l-84 238q-11 33 -45 33h-557q-34 0 -45 -33l-84 -238q-6 -18 -17 -25.5t-29 -7.5h-270q-17 0 -26.5 8t-9.5 22zM559 1893q0 66 34 123.5t92 91 t126 33.5q67 0 123.5 -33.5t90 -91t33.5 -123.5q0 -68 -33.5 -125.5t-90 -91.5t-123.5 -34q-68 0 -126 34t-92 91.5t-34 125.5zM609 616q0 -14 9.5 -22t26.5 -8h333q35 0 35 31q0 10 -2 16l-173 494q-4 14 -11.5 21t-15.5 7q-17 0 -26 -28l-173 -494q-3 -9 -3 -17zM698 1893 q0 -52 32 -84.5t81 -32.5t81.5 32.5t32.5 84.5q0 30 -15 57t-41.5 43.5t-57.5 16.5q-48 0 -80.5 -35t-32.5 -82z" />
<glyph unicode="&#xc6;" horiz-adv-x="2108" d="M52 30q0 8 3 17l540 1457q12 32 47 32h1289q41 0 41 -41v-216q0 -41 -41 -41h-537q-19 0 -30 -10.5t-11 -30.5v-239q0 -20 10.5 -30.5t30.5 -10.5h451q20 0 30.5 -10.5t10.5 -30.5v-217q0 -20 -10.5 -30.5t-30.5 -10.5h-451q-20 0 -30.5 -10.5t-10.5 -29.5v-239 q0 -19 11 -30t30 -11h537q41 0 41 -41v-216q0 -41 -41 -41h-876q-41 0 -41 41v222q0 20 -10.5 30.5t-30.5 10.5h-438q-18 0 -29 -7.5t-17 -25.5l-83 -238q-6 -18 -17 -25.5t-29 -7.5h-272q-17 0 -26.5 8t-9.5 22zM611 617q0 -31 35 -31h327q20 0 30.5 10.5t10.5 30.5v569 q0 20 -10.5 30.5t-30.5 10.5h-115q-34 0 -45 -32l-200 -572q-2 -6 -2 -16z" />
<glyph unicode="&#xc7;" horiz-adv-x="1557" d="M90 768q0 223 106.5 403t293 282.5t418.5 102.5q164 0 310.5 -56.5t256.5 -158.5q15 -13 15 -29q0 -14 -15 -29l-179 -167q-13 -13 -28 -13q-16 0 -31 15q-64 61 -148.5 94.5t-180.5 33.5q-134 0 -243.5 -62.5t-172.5 -172t-63 -243.5t63 -243.5t172.5 -172t243.5 -62.5 q96 0 181 33.5t148 95.5q14 13 30 13t29 -14l179 -165q16 -16 16 -31q0 -13 -13 -25q-101 -94 -233 -150t-281 -65l-26 -46q-22 -38 -16 -44q1 -3 9 -4t18 -1q55 0 99 -24.5t69 -68t25 -99.5q0 -63 -30 -115t-82 -82t-115 -30q-76 0 -134 33t-88 88q-6 10 -6 19q0 22 29 32 l67 23q9 3 16 3q10 0 18.5 -5.5t19.5 -17.5q31 -29 72 -29q34 0 59 22.5t25 58.5q0 39 -25 60.5t-60 21.5q-25 0 -47 -11q-22 -12 -35 -12q-10 0 -21 6l-51 29q-22 13 -22 32q0 8 7 24l75 140q-209 20 -373.5 126.5t-257.5 277.5t-93 379z" />
<glyph unicode="&#xc8;" horiz-adv-x="1273" d="M195 41v1454q0 41 41 41h860q20 0 30.5 -10.5t10.5 -30.5v-216q0 -20 -10.5 -30.5t-30.5 -10.5h-521q-20 0 -30.5 -10.5t-10.5 -30.5v-241q0 -41 41 -41h451q41 0 41 -41v-213q0 -41 -41 -41h-451q-41 0 -41 -41v-240q0 -20 10.5 -30.5t30.5 -10.5h521q20 0 30.5 -10.5 t10.5 -30.5v-216q0 -20 -10.5 -30.5t-30.5 -10.5h-860q-41 0 -41 41zM362 1928q0 18 19 30l92 64q15 10 26 10q17 0 30 -19l209 -298q10 -15 10 -25q0 -11 -9 -17.5t-26 -6.5h-108q-34 0 -51 23l-181 211q-11 14 -11 28z" />
<glyph unicode="&#xc9;" horiz-adv-x="1273" d="M195 41v1454q0 41 41 41h860q20 0 30.5 -10.5t10.5 -30.5v-216q0 -20 -10.5 -30.5t-30.5 -10.5h-521q-20 0 -30.5 -10.5t-10.5 -30.5v-241q0 -41 41 -41h451q41 0 41 -41v-213q0 -41 -41 -41h-451q-41 0 -41 -41v-240q0 -20 10.5 -30.5t30.5 -10.5h521q20 0 30.5 -10.5 t10.5 -30.5v-216q0 -20 -10.5 -30.5t-30.5 -10.5h-860q-41 0 -41 41zM856 1690q0 10 10 25l209 298q13 19 30 19q11 0 26 -10l92 -64q19 -12 19 -30q0 -14 -11 -28l-181 -211q-17 -23 -51 -23h-108q-17 0 -26 6.5t-9 17.5z" />
<glyph unicode="&#xca;" horiz-adv-x="1273" d="M195 41v1454q0 41 41 41h860q20 0 30.5 -10.5t10.5 -30.5v-216q0 -20 -10.5 -30.5t-30.5 -10.5h-521q-20 0 -30.5 -10.5t-10.5 -30.5v-241q0 -41 41 -41h451q41 0 41 -41v-213q0 -41 -41 -41h-451q-41 0 -41 -41v-240q0 -20 10.5 -30.5t30.5 -10.5h521q20 0 30.5 -10.5 t10.5 -30.5v-216q0 -20 -10.5 -30.5t-30.5 -10.5h-860q-41 0 -41 41zM372 1737q0 12 10 25l174 226q19 25 50 25h136q31 0 50 -25l174 -226q10 -13 10 -25q0 -11 -9 -17.5t-26 -6.5h-105q-32 0 -49 26l-84 120q-12 18 -29 18q-16 0 -28 -18l-85 -120q-17 -26 -49 -26h-105 q-17 0 -26 6.5t-9 17.5z" />
<glyph unicode="&#xcb;" horiz-adv-x="1273" d="M195 41v1454q0 41 41 41h860q20 0 30.5 -10.5t10.5 -30.5v-216q0 -20 -10.5 -30.5t-30.5 -10.5h-521q-20 0 -30.5 -10.5t-10.5 -30.5v-241q0 -41 41 -41h451q41 0 41 -41v-213q0 -41 -41 -41h-451q-41 0 -41 -41v-240q0 -20 10.5 -30.5t30.5 -10.5h521q20 0 30.5 -10.5 t10.5 -30.5v-216q0 -20 -10.5 -30.5t-30.5 -10.5h-860q-41 0 -41 41zM302 1879q0 42 21 77.5t57 56t78 20.5q41 0 77 -20.5t57 -56t21 -77.5t-21 -77.5t-57 -56.5t-77 -21q-42 0 -78 21t-57 56.5t-21 77.5zM736 1879q0 42 21 77.5t57 56t78 20.5t77.5 -20.5t56 -56 t20.5 -77.5t-20.5 -77.5t-56 -56.5t-77.5 -21t-78 21t-57 56.5t-21 77.5z" />
<glyph unicode="&#xcc;" horiz-adv-x="729" d="M50 1928q0 18 19 30l92 64q15 10 26 10q17 0 30 -19l209 -298q10 -15 10 -25q0 -11 -9 -17.5t-26 -6.5h-108q-34 0 -51 23l-181 211q-11 14 -11 28zM195 41v1454q0 41 41 41h257q41 0 41 -41v-1454q0 -41 -41 -41h-257q-41 0 -41 41z" />
<glyph unicode="&#xcd;" horiz-adv-x="729" d="M195 41v1454q0 41 41 41h257q41 0 41 -41v-1454q0 -41 -41 -41h-257q-41 0 -41 41zM544 1690q0 10 10 25l209 298q13 19 30 19q11 0 26 -10l92 -64q19 -12 19 -30q0 -14 -11 -28l-181 -211q-17 -23 -51 -23h-108q-17 0 -26 6.5t-9 17.5z" />
<glyph unicode="&#xce;" horiz-adv-x="729" d="M60 1737q0 12 10 25l174 226q19 25 50 25h136q31 0 50 -25l174 -226q10 -13 10 -25q0 -11 -9 -17.5t-26 -6.5h-105q-32 0 -49 26l-84 120q-12 18 -29 18q-16 0 -28 -18l-85 -120q-17 -26 -49 -26h-105q-17 0 -26 6.5t-9 17.5zM195 41v1454q0 41 41 41h257q41 0 41 -41 v-1454q0 -41 -41 -41h-257q-41 0 -41 41z" />
<glyph unicode="&#xcf;" horiz-adv-x="729" d="M-10 1879q0 42 21 77.5t57 56t78 20.5q41 0 77 -20.5t57 -56t21 -77.5t-21 -77.5t-57 -56.5t-77 -21q-42 0 -78 21t-57 56.5t-21 77.5zM195 41v1454q0 41 41 41h257q41 0 41 -41v-1454q0 -41 -41 -41h-257q-41 0 -41 41zM424 1879q0 42 21 77.5t57 56t78 20.5t77.5 -20.5 t56 -56t20.5 -77.5t-20.5 -77.5t-56 -56.5t-77.5 -21t-78 21t-57 56.5t-21 77.5z" />
<glyph unicode="&#xd0;" horiz-adv-x="1624" d="M51 710v115q0 41 41 41h103v629q0 41 41 41h505q255 0 431 -94t265 -266.5t89 -407.5t-89 -407.5t-265 -266.5t-431 -94h-505q-41 0 -41 41v628h-103q-41 0 -41 41zM534 339q0 -20 10.5 -30.5t30.5 -10.5h150q446 0 446 470t-446 470h-150q-20 0 -30.5 -10.5t-10.5 -30.5 v-331h193q20 0 30.5 -10.5t10.5 -30.5v-115q0 -20 -10.5 -30.5t-30.5 -10.5h-193v-330z" />
<glyph unicode="&#xd1;" horiz-adv-x="1882" d="M195 41v1454q0 41 41 41h262q31 0 50 -24l749 -956q13 -18 29 -18q9 0 15.5 9t6.5 26v922q0 20 10.5 30.5t30.5 10.5h258q20 0 30.5 -10.5t10.5 -30.5v-1454q0 -20 -10.5 -30.5t-30.5 -10.5h-265q-30 0 -50 24l-749 961q-13 18 -28 18q-10 0 -16.5 -9.5t-6.5 -26.5v-926 q0 -41 -41 -41h-255q-41 0 -41 41zM580 1761q10 119 71.5 191.5t160.5 72.5q66 0 117.5 -32.5t85.5 -85.5q13 -20 27 -30.5t35 -10.5q31 0 48.5 27t21.5 77q1 20 12.5 30.5t30.5 10.5h85q20 0 30 -12t9 -35q-10 -117 -70.5 -188.5t-162.5 -71.5q-65 0 -114.5 30t-87.5 88 q-14 22 -28 31.5t-32 9.5q-31 0 -49 -28t-24 -76q-1 -20 -12.5 -30.5t-30.5 -10.5h-83q-43 0 -40 43z" />
<glyph unicode="&#xd2;" horiz-adv-x="1815" d="M90 768q0 223 106.5 403t293.5 282.5t418 102.5t418 -102.5t293.5 -282.5t106.5 -403t-106.5 -403t-293.5 -282.5t-418 -102.5t-418 102.5t-293.5 282.5t-106.5 403zM429 768q0 -134 63 -243.5t172.5 -172t243.5 -62.5t243 62.5t172 172t63 243.5t-63 243.5t-172 172 t-243 62.5t-243.5 -62.5t-172.5 -172t-63 -243.5zM596 1928q0 18 19 30l92 64q15 10 26 10q17 0 30 -19l209 -298q10 -15 10 -25q0 -11 -9 -17.5t-26 -6.5h-108q-34 0 -51 23l-181 211q-11 14 -11 28z" />
<glyph unicode="&#xd3;" horiz-adv-x="1815" d="M90 768q0 223 106.5 403t293.5 282.5t418 102.5t418 -102.5t293.5 -282.5t106.5 -403t-106.5 -403t-293.5 -282.5t-418 -102.5t-418 102.5t-293.5 282.5t-106.5 403zM429 768q0 -134 63 -243.5t172.5 -172t243.5 -62.5t243 62.5t172 172t63 243.5t-63 243.5t-172 172 t-243 62.5t-243.5 -62.5t-172.5 -172t-63 -243.5zM1090 1690q0 10 10 25l209 298q13 19 30 19q11 0 26 -10l92 -64q19 -12 19 -30q0 -14 -11 -28l-181 -211q-17 -23 -51 -23h-108q-17 0 -26 6.5t-9 17.5z" />
<glyph unicode="&#xd4;" horiz-adv-x="1815" d="M90 768q0 223 106.5 403t293.5 282.5t418 102.5t418 -102.5t293.5 -282.5t106.5 -403t-106.5 -403t-293.5 -282.5t-418 -102.5t-418 102.5t-293.5 282.5t-106.5 403zM429 768q0 -134 63 -243.5t172.5 -172t243.5 -62.5t243 62.5t172 172t63 243.5t-63 243.5t-172 172 t-243 62.5t-243.5 -62.5t-172.5 -172t-63 -243.5zM606 1737q0 12 10 25l174 226q19 25 50 25h136q31 0 50 -25l174 -226q10 -13 10 -25q0 -11 -9 -17.5t-26 -6.5h-105q-32 0 -49 26l-84 120q-12 18 -29 18q-16 0 -28 -18l-85 -120q-17 -26 -49 -26h-105q-17 0 -26 6.5 t-9 17.5z" />
<glyph unicode="&#xd5;" horiz-adv-x="1815" d="M90 768q0 223 106.5 403t293.5 282.5t418 102.5t418 -102.5t293.5 -282.5t106.5 -403t-106.5 -403t-293.5 -282.5t-418 -102.5t-418 102.5t-293.5 282.5t-106.5 403zM429 768q0 -134 63 -243.5t172.5 -172t243.5 -62.5t243 62.5t172 172t63 243.5t-63 243.5t-172 172 t-243 62.5t-243.5 -62.5t-172.5 -172t-63 -243.5zM540 1761q10 119 71.5 191.5t160.5 72.5q66 0 117.5 -32.5t85.5 -85.5q13 -20 27 -30.5t35 -10.5q31 0 48.5 27t21.5 77q1 20 12.5 30.5t30.5 10.5h85q20 0 30 -12t9 -35q-10 -117 -70.5 -188.5t-162.5 -71.5 q-65 0 -114.5 30t-87.5 88q-14 22 -28 31.5t-32 9.5q-31 0 -49 -28t-24 -76q-1 -20 -12.5 -30.5t-30.5 -10.5h-83q-43 0 -40 43z" />
<glyph unicode="&#xd6;" horiz-adv-x="1815" d="M90 768q0 223 106.5 403t293.5 282.5t418 102.5t418 -102.5t293.5 -282.5t106.5 -403t-106.5 -403t-293.5 -282.5t-418 -102.5t-418 102.5t-293.5 282.5t-106.5 403zM429 768q0 -134 63 -243.5t172.5 -172t243.5 -62.5t243 62.5t172 172t63 243.5t-63 243.5t-172 172 t-243 62.5t-243.5 -62.5t-172.5 -172t-63 -243.5zM536 1879q0 42 21 77.5t57 56t78 20.5q41 0 77 -20.5t57 -56t21 -77.5t-21 -77.5t-57 -56.5t-77 -21q-42 0 -78 21t-57 56.5t-21 77.5zM970 1879q0 42 21 77.5t57 56t78 20.5t77.5 -20.5t56 -56t20.5 -77.5t-20.5 -77.5 t-56 -56.5t-77.5 -21t-78 21t-57 56.5t-21 77.5z" />
<glyph unicode="&#xd7;" horiz-adv-x="1125" d="M137 438q0 16 13 29l208 207q14 16 14 29q0 15 -14 29l-208 207q-13 13 -13 28q0 16 13 29l119 119q14 14 29 14t28 -14l209 -207q14 -14 29 -14t28 14l206 207q14 15 28 15q16 0 29 -15l119 -119q14 -13 14 -28q0 -16 -14 -29l-208 -207q-13 -13 -13 -29q0 -15 13 -29 l208 -207q14 -13 14 -29q0 -15 -14 -29l-119 -119q-14 -14 -29 -14t-28 14l-206 208q-13 14 -28 14t-29 -14l-209 -208q-14 -14 -29 -14q-14 0 -28 14l-119 119q-13 14 -13 29z" />
<glyph unicode="&#xd8;" horiz-adv-x="1815" d="M90 768q0 223 106.5 403t293.5 282.5t418 102.5q194 0 356 -72q14 -6 24 -6q19 0 34 20l53 78q14 20 33 20q11 0 25 -8l62 -37q20 -11 20 -32q0 -13 -8 -25l-54 -76q-9 -13 -9 -26q0 -17 17 -32q126 -107 195.5 -260t69.5 -332q0 -223 -106.5 -403t-293.5 -282.5 t-418 -102.5q-195 0 -357 72q-13 6 -24 6q-19 0 -33 -20l-54 -78q-14 -20 -32 -20q-11 0 -25 8l-63 36q-20 14 -20 33q0 11 8 25l54 76q9 14 9 26q0 17 -17 32q-125 107 -194.5 260t-69.5 332zM429 768q0 -89 29 -170t83 -142q14 -15 27 -15q16 0 30 20l492 702q9 12 9 25 q0 10 -7 18t-20 12q-79 28 -164 28q-134 0 -243.5 -62.5t-172.5 -172t-63 -243.5zM717 348q0 -21 23 -30q82 -28 168 -28q134 0 243 62.5t172 172t63 243.5q0 89 -29 170t-82 142q-13 15 -27 15q-17 0 -31 -19l-491 -703q-9 -13 -9 -25z" />
<glyph unicode="&#xd9;" horiz-adv-x="1607" d="M164 541v954q0 41 41 41h257q41 0 41 -41v-905q0 -165 81 -238.5t218 -73.5q138 0 219.5 73.5t81.5 238.5v905q0 20 10.5 30.5t30.5 10.5h258q41 0 41 -41v-954q0 -188 -82.5 -313.5t-227 -186.5t-331.5 -61q-185 0 -329 61t-226.5 186.5t-82.5 313.5zM490 1928 q0 18 19 30l92 64q15 10 26 10q17 0 30 -19l209 -298q10 -15 10 -25q0 -11 -9 -17.5t-26 -6.5h-108q-34 0 -51 23l-181 211q-11 14 -11 28z" />
<glyph unicode="&#xda;" horiz-adv-x="1607" d="M164 541v954q0 41 41 41h257q41 0 41 -41v-905q0 -165 81 -238.5t218 -73.5q138 0 219.5 73.5t81.5 238.5v905q0 20 10.5 30.5t30.5 10.5h258q41 0 41 -41v-954q0 -188 -82.5 -313.5t-227 -186.5t-331.5 -61q-185 0 -329 61t-226.5 186.5t-82.5 313.5zM984 1690 q0 10 10 25l209 298q13 19 30 19q11 0 26 -10l92 -64q19 -12 19 -30q0 -14 -11 -28l-181 -211q-17 -23 -51 -23h-108q-17 0 -26 6.5t-9 17.5z" />
<glyph unicode="&#xdb;" horiz-adv-x="1607" d="M164 541v954q0 41 41 41h257q41 0 41 -41v-905q0 -165 81 -238.5t218 -73.5q138 0 219.5 73.5t81.5 238.5v905q0 20 10.5 30.5t30.5 10.5h258q41 0 41 -41v-954q0 -188 -82.5 -313.5t-227 -186.5t-331.5 -61q-185 0 -329 61t-226.5 186.5t-82.5 313.5zM500 1737 q0 12 10 25l174 226q19 25 50 25h136q31 0 50 -25l174 -226q10 -13 10 -25q0 -11 -9 -17.5t-26 -6.5h-105q-32 0 -49 26l-84 120q-12 18 -29 18q-16 0 -28 -18l-85 -120q-17 -26 -49 -26h-105q-17 0 -26 6.5t-9 17.5z" />
<glyph unicode="&#xdc;" horiz-adv-x="1607" d="M164 541v954q0 41 41 41h257q41 0 41 -41v-905q0 -165 81 -238.5t218 -73.5q138 0 219.5 73.5t81.5 238.5v905q0 20 10.5 30.5t30.5 10.5h258q41 0 41 -41v-954q0 -188 -82.5 -313.5t-227 -186.5t-331.5 -61q-185 0 -329 61t-226.5 186.5t-82.5 313.5zM430 1879 q0 42 21 77.5t57 56t78 20.5q41 0 77 -20.5t57 -56t21 -77.5t-21 -77.5t-57 -56.5t-77 -21q-42 0 -78 21t-57 56.5t-21 77.5zM864 1879q0 42 21 77.5t57 56t78 20.5t77.5 -20.5t56 -56t20.5 -77.5t-20.5 -77.5t-56 -56.5t-77.5 -21t-78 21t-57 56.5t-21 77.5z" />
<glyph unicode="&#xdd;" horiz-adv-x="1465" d="M49 1510q0 12 9 19t26 7h290q18 0 29.5 -6t20.5 -21l282 -449q12 -20 29 -20q16 0 28 20l282 449q9 15 20.5 21t28.5 6h287q16 0 25.5 -7t9.5 -18q0 -12 -9 -24l-489 -739q-14 -22 -14 -51v-656q0 -41 -41 -41h-258q-20 0 -30.5 10.5t-10.5 30.5v650q0 28 -14 52 l-493 744q-8 11 -8 23zM916 1690q0 10 10 25l209 298q13 19 30 19q11 0 26 -10l92 -64q19 -12 19 -30q0 -14 -11 -28l-181 -211q-17 -23 -51 -23h-108q-17 0 -26 6.5t-9 17.5z" />
<glyph unicode="&#xde;" horiz-adv-x="1366" d="M194 41v1454q0 41 41 41h247q20 0 30.5 -10.5t10.5 -30.5v-143q0 -40 41 -40h278q126 0 231 -62t166 -169.5t61 -235.5q0 -123 -61 -225t-166 -161.5t-231 -59.5h-278q-20 0 -30.5 -10.5t-10.5 -30.5v-317q0 -20 -10.5 -30.5t-30.5 -10.5h-247q-41 0 -41 41zM523 731 q0 -20 10.5 -30.5t30.5 -10.5h265q47 0 85.5 22t61 60t22.5 84t-22.5 83.5t-61 59t-85.5 21.5h-265q-41 0 -41 -41v-248z" />
<glyph unicode="&#xdf;" horiz-adv-x="1379" d="M154 41v893q0 230 78 369t198 196t256 57q172 0 292 -58.5t180 -159t60 -226.5q0 -73 -23 -140t-65 -123q-11 -14 -11 -27q0 -17 17 -30q80 -67 125 -161t45 -201q0 -105 -43 -203t-137.5 -162.5t-239.5 -64.5h-179q-41 0 -41 41v208q0 20 10.5 30.5t30.5 10.5h100 q81 0 126.5 50t45.5 129q0 54 -28 96t-76 65.5t-105 23.5h-71q-20 0 -30.5 10.5t-10.5 30.5v186q0 19 9 30t24 11h34q50 0 93 25t68 68t25 95q0 50 -24.5 89.5t-71 62t-110.5 22.5q-103 0 -163.5 -66t-60.5 -219v-958q0 -41 -41 -41h-245q-20 0 -30.5 10.5t-10.5 30.5z" />
<glyph unicode="&#xe0;" horiz-adv-x="1390" d="M71 532q0 158 69 284.5t185 198t252 71.5q169 0 283 -99q21 -16 32 -16q17 0 17 25v22q0 20 10.5 30.5t30.5 10.5h245q20 0 30.5 -10.5t10.5 -30.5v-977q0 -20 -10.5 -30.5t-30.5 -10.5h-247q-20 0 -30.5 10.5t-10.5 30.5v12q0 18 -5 28.5t-14 10.5q-8 0 -17 -9 q-111 -105 -294 -105q-136 0 -252 71t-185 198t-69 285zM385 1451q0 18 19 30l92 64q15 10 26 10q17 0 30 -19l209 -298q10 -15 10 -25q0 -11 -9 -17.5t-26 -6.5h-108q-34 0 -51 23l-181 211q-11 14 -11 28zM398 532q0 -85 36 -149t99 -98.5t142 -34.5q77 0 139 34.5t98 99 t36 148.5t-36 148.5t-98 99t-139 34.5q-79 0 -142 -34.5t-99 -98.5t-36 -149z" />
<glyph unicode="&#xe1;" horiz-adv-x="1390" d="M71 532q0 158 69 284.5t185 198t252 71.5q169 0 283 -99q21 -16 32 -16q17 0 17 25v22q0 20 10.5 30.5t30.5 10.5h245q20 0 30.5 -10.5t10.5 -30.5v-977q0 -20 -10.5 -30.5t-30.5 -10.5h-247q-20 0 -30.5 10.5t-10.5 30.5v12q0 18 -5 28.5t-14 10.5q-8 0 -17 -9 q-111 -105 -294 -105q-136 0 -252 71t-185 198t-69 285zM398 532q0 -85 36 -149t99 -98.5t142 -34.5q77 0 139 34.5t98 99t36 148.5t-36 148.5t-98 99t-139 34.5q-79 0 -142 -34.5t-99 -98.5t-36 -149zM879 1213q0 10 10 25l209 298q13 19 30 19q11 0 26 -10l92 -64 q19 -12 19 -30q0 -14 -11 -28l-181 -211q-17 -23 -51 -23h-108q-17 0 -26 6.5t-9 17.5z" />
<glyph unicode="&#xe2;" horiz-adv-x="1390" d="M71 532q0 158 69 284.5t185 198t252 71.5q169 0 283 -99q21 -16 32 -16q17 0 17 25v22q0 20 10.5 30.5t30.5 10.5h245q20 0 30.5 -10.5t10.5 -30.5v-977q0 -20 -10.5 -30.5t-30.5 -10.5h-247q-20 0 -30.5 10.5t-10.5 30.5v12q0 18 -5 28.5t-14 10.5q-8 0 -17 -9 q-111 -105 -294 -105q-136 0 -252 71t-185 198t-69 285zM395 1260q0 12 10 25l174 226q19 25 50 25h136q31 0 50 -25l174 -226q10 -13 10 -25q0 -11 -9 -17.5t-26 -6.5h-105q-32 0 -49 26l-84 120q-12 18 -29 18q-16 0 -28 -18l-85 -120q-17 -26 -49 -26h-105q-17 0 -26 6.5 t-9 17.5zM398 532q0 -85 36 -149t99 -98.5t142 -34.5q77 0 139 34.5t98 99t36 148.5t-36 148.5t-98 99t-139 34.5q-79 0 -142 -34.5t-99 -98.5t-36 -149z" />
<glyph unicode="&#xe3;" horiz-adv-x="1390" d="M71 532q0 158 69 284.5t185 198t252 71.5q169 0 283 -99q21 -16 32 -16q17 0 17 25v22q0 20 10.5 30.5t30.5 10.5h245q20 0 30.5 -10.5t10.5 -30.5v-977q0 -20 -10.5 -30.5t-30.5 -10.5h-247q-20 0 -30.5 10.5t-10.5 30.5v12q0 18 -5 28.5t-14 10.5q-8 0 -17 -9 q-111 -105 -294 -105q-136 0 -252 71t-185 198t-69 285zM329 1284q10 119 71.5 191.5t160.5 72.5q66 0 117.5 -32.5t85.5 -85.5q13 -20 27 -30.5t35 -10.5q31 0 48.5 27t21.5 77q1 20 12.5 30.5t30.5 10.5h85q20 0 30 -12t9 -35q-10 -117 -70.5 -188.5t-162.5 -71.5 q-65 0 -114.5 30t-87.5 88q-14 22 -28 31.5t-32 9.5q-31 0 -49 -28t-24 -76q-1 -20 -12.5 -30.5t-30.5 -10.5h-83q-43 0 -40 43zM398 532q0 -85 36 -149t99 -98.5t142 -34.5q77 0 139 34.5t98 99t36 148.5t-36 148.5t-98 99t-139 34.5q-79 0 -142 -34.5t-99 -98.5t-36 -149z " />
<glyph unicode="&#xe4;" horiz-adv-x="1390" d="M71 532q0 158 69 284.5t185 198t252 71.5q169 0 283 -99q21 -16 32 -16q17 0 17 25v22q0 20 10.5 30.5t30.5 10.5h245q20 0 30.5 -10.5t10.5 -30.5v-977q0 -20 -10.5 -30.5t-30.5 -10.5h-247q-20 0 -30.5 10.5t-10.5 30.5v12q0 18 -5 28.5t-14 10.5q-8 0 -17 -9 q-111 -105 -294 -105q-136 0 -252 71t-185 198t-69 285zM325 1402q0 42 21 77.5t57 56t78 20.5q41 0 77 -20.5t57 -56t21 -77.5t-21 -77.5t-57 -56.5t-77 -21q-42 0 -78 21t-57 56.5t-21 77.5zM398 532q0 -85 36 -149t99 -98.5t142 -34.5q77 0 139 34.5t98 99t36 148.5 t-36 148.5t-98 99t-139 34.5q-79 0 -142 -34.5t-99 -98.5t-36 -149zM759 1402q0 42 21 77.5t57 56t78 20.5t77.5 -20.5t56 -56t20.5 -77.5t-20.5 -77.5t-56 -56.5t-77.5 -21t-78 21t-57 56.5t-21 77.5z" />
<glyph unicode="&#xe5;" horiz-adv-x="1390" d="M71 532q0 158 69 284.5t185 198t252 71.5q169 0 283 -99q21 -16 32 -16q17 0 17 25v22q0 20 10.5 30.5t30.5 10.5h245q20 0 30.5 -10.5t10.5 -30.5v-977q0 -20 -10.5 -30.5t-30.5 -10.5h-247q-20 0 -30.5 10.5t-10.5 30.5v12q0 18 -5 28.5t-14 10.5q-8 0 -17 -9 q-111 -105 -294 -105q-136 0 -252 71t-185 198t-69 285zM398 532q0 -85 36 -149t99 -98.5t142 -34.5q77 0 139 34.5t98 99t36 148.5t-36 148.5t-98 99t-139 34.5q-79 0 -142 -34.5t-99 -98.5t-36 -149zM445 1416q0 66 34 123.5t92 91t126 33.5q67 0 123.5 -33.5t90 -91 t33.5 -123.5q0 -68 -33.5 -125.5t-90 -91.5t-123.5 -34q-68 0 -126 34t-92 91.5t-34 125.5zM584 1416q0 -52 32 -84.5t81 -32.5t81.5 32.5t32.5 84.5q0 30 -15 57t-41.5 43.5t-57.5 16.5q-48 0 -80.5 -35t-32.5 -82z" />
<glyph unicode="&#xe6;" horiz-adv-x="1846" d="M71 296q0 107 52 188.5t159 128t267 47.5l102 1q20 0 30.5 6t14.5 24q1 4 5 18t4 27q0 15 -7 28q-52 82 -191 82q-66 0 -135 -21.5t-129 -59.5q-13 -10 -26 -10q-19 0 -30 23l-63 140q-5 10 -5 22q0 21 21 34q93 52 189.5 79.5t222.5 27.5q201 0 311 -88q14 -13 30 -13 q12 0 27 9q66 44 147.5 68t170.5 24q152 0 275 -66t194.5 -187t73.5 -282q0 -8 -1 -18t-2 -15q-3 -37 -40 -37h-693q-18 0 -28 -8.5t-10 -24.5q0 -8 1 -12q21 -94 85 -145t157 -51q67 0 123 26t93 77q18 23 37 23q7 0 19 -5l182 -77q26 -11 26 -33q0 -9 -6 -20 q-67 -117 -190 -181.5t-284 -64.5q-120 0 -221 36.5t-177 103.5q-14 14 -29 14q-14 0 -28 -14q-80 -77 -165 -108.5t-207 -31.5q-106 0 -185.5 37.5t-123 109t-43.5 169.5zM383 318q0 -59 38.5 -87.5t102.5 -28.5q102 0 172 72q16 16 16 33q0 9 -5 22q-18 53 -22 84 q-9 37 -45 37h-76q-95 0 -138 -36t-43 -96zM1021 695q0 -13 10 -21t27 -8h352q17 0 27 8t10 22q0 8 -3 17q-24 67 -74.5 102t-128.5 35q-77 0 -132 -35.5t-84 -101.5q-4 -9 -4 -18z" />
<glyph unicode="&#xe7;" horiz-adv-x="1137" d="M66 530q0 159 76.5 284t210 195t300.5 70q125 0 233.5 -41t188.5 -117q14 -14 14 -27q0 -15 -17 -30l-164 -142q-11 -11 -26 -11q-16 0 -31 16q-38 38 -89 58.5t-110 20.5q-77 0 -140 -34t-99.5 -97t-36.5 -145t36.5 -144.5t99.5 -96.5t140 -34q59 0 110 20.5t89 58.5 q15 16 31 16q15 0 26 -11l164 -142q18 -16 18 -32q0 -11 -11 -22q-69 -68 -164 -109t-205 -50l-28 -48q-22 -38 -16 -44q1 -3 9 -4t18 -1q55 0 99 -24.5t69 -68t25 -99.5q0 -63 -30 -115t-82 -82t-115 -30q-76 0 -134 33t-88 88q-6 10 -6 19q0 22 29 32l67 23q9 3 16 3 q10 0 18.5 -5.5t19.5 -17.5q31 -29 72 -29q34 0 59 22.5t25 58.5q0 39 -25 60.5t-60 21.5q-25 0 -47 -11q-22 -12 -35 -12q-10 0 -21 6l-51 29q-22 13 -22 32q0 8 7 24l77 143q-144 18 -256 91.5t-175 190t-63 260.5z" />
<glyph unicode="&#xe8;" horiz-adv-x="1240" d="M66 529q0 153 72 279.5t201 199.5t293 73q152 0 275 -66t194.5 -188t72.5 -283l-1 -29q-2 -18 -12.5 -28.5t-29.5 -10.5h-699q-17 0 -28 -8.5t-11 -23.5q0 -3 2 -13q18 -92 86 -144t162 -52q67 0 123 26t94 77q17 23 36 23q7 0 19 -5l183 -77q28 -11 28 -32q0 -6 -5 -16 q-66 -118 -190.5 -184.5t-287.5 -66.5q-171 0 -302 72.5t-203 198t-72 278.5zM330 1455q0 18 19 30l92 64q15 10 26 10q17 0 30 -19l209 -298q10 -15 10 -25q0 -11 -9 -17.5t-26 -6.5h-108q-34 0 -51 23l-181 211q-11 14 -11 28zM406 696q0 -14 10.5 -22t28.5 -8h371 q18 0 28 7.5t10 21.5q0 7 -3 16q-24 66 -81 102.5t-135 36.5t-137 -36t-88 -101q-4 -8 -4 -17z" />
<glyph unicode="&#xe9;" horiz-adv-x="1240" d="M66 529q0 153 72 279.5t201 199.5t293 73q152 0 275 -66t194.5 -188t72.5 -283l-1 -29q-2 -18 -12.5 -28.5t-29.5 -10.5h-699q-17 0 -28 -8.5t-11 -23.5q0 -3 2 -13q18 -92 86 -144t162 -52q67 0 123 26t94 77q17 23 36 23q7 0 19 -5l183 -77q28 -11 28 -32q0 -6 -5 -16 q-66 -118 -190.5 -184.5t-287.5 -66.5q-171 0 -302 72.5t-203 198t-72 278.5zM406 696q0 -14 10.5 -22t28.5 -8h371q18 0 28 7.5t10 21.5q0 7 -3 16q-24 66 -81 102.5t-135 36.5t-137 -36t-88 -101q-4 -8 -4 -17zM824 1217q0 10 10 25l209 298q13 19 30 19q11 0 26 -10 l92 -64q19 -12 19 -30q0 -14 -11 -28l-181 -211q-17 -23 -51 -23h-108q-17 0 -26 6.5t-9 17.5z" />
<glyph unicode="&#xea;" horiz-adv-x="1240" d="M66 529q0 153 72 279.5t201 199.5t293 73q152 0 275 -66t194.5 -188t72.5 -283l-1 -29q-2 -18 -12.5 -28.5t-29.5 -10.5h-699q-17 0 -28 -8.5t-11 -23.5q0 -3 2 -13q18 -92 86 -144t162 -52q67 0 123 26t94 77q17 23 36 23q7 0 19 -5l183 -77q28 -11 28 -32q0 -6 -5 -16 q-66 -118 -190.5 -184.5t-287.5 -66.5q-171 0 -302 72.5t-203 198t-72 278.5zM340 1264q0 12 10 25l174 226q19 25 50 25h136q31 0 50 -25l174 -226q10 -13 10 -25q0 -11 -9 -17.5t-26 -6.5h-105q-32 0 -49 26l-84 120q-12 18 -29 18q-16 0 -28 -18l-85 -120 q-17 -26 -49 -26h-105q-17 0 -26 6.5t-9 17.5zM406 696q0 -14 10.5 -22t28.5 -8h371q18 0 28 7.5t10 21.5q0 7 -3 16q-24 66 -81 102.5t-135 36.5t-137 -36t-88 -101q-4 -8 -4 -17z" />
<glyph unicode="&#xeb;" horiz-adv-x="1240" d="M66 529q0 153 72 279.5t201 199.5t293 73q152 0 275 -66t194.5 -188t72.5 -283l-1 -29q-2 -18 -12.5 -28.5t-29.5 -10.5h-699q-17 0 -28 -8.5t-11 -23.5q0 -3 2 -13q18 -92 86 -144t162 -52q67 0 123 26t94 77q17 23 36 23q7 0 19 -5l183 -77q28 -11 28 -32q0 -6 -5 -16 q-66 -118 -190.5 -184.5t-287.5 -66.5q-171 0 -302 72.5t-203 198t-72 278.5zM270 1406q0 42 21 77.5t57 56t78 20.5q41 0 77 -20.5t57 -56t21 -77.5t-21 -77.5t-57 -56.5t-77 -21q-42 0 -78 21t-57 56.5t-21 77.5zM406 696q0 -14 10.5 -22t28.5 -8h371q18 0 28 7.5t10 21.5 q0 7 -3 16q-24 66 -81 102.5t-135 36.5t-137 -36t-88 -101q-4 -8 -4 -17zM704 1406q0 42 21 77.5t57 56t78 20.5t77.5 -20.5t56 -56t20.5 -77.5t-20.5 -77.5t-56 -56.5t-77.5 -21t-78 21t-57 56.5t-21 77.5z" />
<glyph unicode="&#xec;" horiz-adv-x="637" d="M7 1451q0 18 19 30l92 64q15 10 26 10q17 0 30 -19l209 -298q10 -15 10 -25q0 -11 -9 -17.5t-26 -6.5h-108q-34 0 -51 23l-181 211q-11 14 -11 28zM156 41v977q0 20 10.5 30.5t30.5 10.5h243q20 0 30.5 -10.5t10.5 -30.5v-977q0 -41 -41 -41h-243q-41 0 -41 41z" />
<glyph unicode="&#xed;" horiz-adv-x="637" d="M156 41v977q0 20 10.5 30.5t30.5 10.5h243q20 0 30.5 -10.5t10.5 -30.5v-977q0 -41 -41 -41h-243q-41 0 -41 41zM501 1213q0 10 10 25l209 298q13 19 30 19q11 0 26 -10l92 -64q19 -12 19 -30q0 -14 -11 -28l-181 -211q-17 -23 -51 -23h-108q-17 0 -26 6.5t-9 17.5z" />
<glyph unicode="&#xee;" horiz-adv-x="637" d="M17 1260q0 12 10 25l174 226q19 25 50 25h136q31 0 50 -25l174 -226q10 -13 10 -25q0 -11 -9 -17.5t-26 -6.5h-105q-32 0 -49 26l-84 120q-12 18 -29 18q-16 0 -28 -18l-85 -120q-17 -26 -49 -26h-105q-17 0 -26 6.5t-9 17.5zM156 41v977q0 20 10.5 30.5t30.5 10.5h243 q20 0 30.5 -10.5t10.5 -30.5v-977q0 -41 -41 -41h-243q-41 0 -41 41z" />
<glyph unicode="&#xef;" horiz-adv-x="637" d="M-53 1402q0 42 21 77.5t57 56t78 20.5q41 0 77 -20.5t57 -56t21 -77.5t-21 -77.5t-57 -56.5t-77 -21q-42 0 -78 21t-57 56.5t-21 77.5zM156 41v977q0 20 10.5 30.5t30.5 10.5h243q20 0 30.5 -10.5t10.5 -30.5v-977q0 -41 -41 -41h-243q-41 0 -41 41zM381 1402 q0 42 21 77.5t57 56t78 20.5t77.5 -20.5t56 -56t20.5 -77.5t-20.5 -77.5t-56 -56.5t-77.5 -21t-78 21t-57 56.5t-21 77.5z" />
<glyph unicode="&#xf0;" horiz-adv-x="1276" d="M62 517q0 138 64.5 256.5t173 193.5t235.5 88q16 2 28.5 8t16.5 16q2 6 2 10q0 14 -13 28l-57 68q-17 20 -38 20q-5 0 -15 -2l-234 -63q-9 -3 -16 -3q-25 0 -33 32l-11 42q-2 10 -2 13q0 28 31 36l159 42q28 8 28 30q0 12 -10 25l-108 128q-11 14 -11 26q0 11 9.5 18 t26.5 7h279q32 0 49 -25q40 -49 43 -52l27 -33q17 -21 38 -21q5 0 15 2l216 59q8 2 13 2q28 0 36 -32l11 -42q2 -10 2 -13q0 -28 -31 -36l-144 -38q-25 -8 -25 -30q0 -17 16 -37q108 -135 169 -219q108 -147 158 -263t50 -240q0 -148 -76.5 -271t-208 -195t-289.5 -72 q-153 0 -285 70.5t-210.5 193.5t-78.5 273zM386 524q0 -71 32.5 -128.5t91 -90.5t133.5 -33q78 0 136.5 32.5t89.5 90t31 129.5q0 74 -31 133.5t-89.5 94t-136.5 34.5q-77 0 -135.5 -34.5t-90 -94t-31.5 -133.5z" />
<glyph unicode="&#xf1;" horiz-adv-x="1289" d="M156 41v977q0 20 10.5 30.5t30.5 10.5h247q20 0 30.5 -10.5t10.5 -30.5v-35q0 -33 18 -33q11 0 28 17q110 112 276 112q167 0 256.5 -100t89.5 -286v-652q0 -41 -41 -41h-248q-20 0 -30.5 10.5t-10.5 30.5v587q0 103 -40.5 142t-116.5 39q-83 0 -132 -53.5t-49 -157.5 v-557q0 -20 -10.5 -30.5t-30.5 -10.5h-247q-41 0 -41 41zM274 1284q10 119 71.5 191.5t160.5 72.5q66 0 117.5 -32.5t85.5 -85.5q13 -20 27 -30.5t35 -10.5q31 0 48.5 27t21.5 77q1 20 12.5 30.5t30.5 10.5h85q20 0 30 -12t9 -35q-10 -117 -70.5 -188.5t-162.5 -71.5 q-65 0 -114.5 30t-87.5 88q-14 22 -28 31.5t-32 9.5q-31 0 -49 -28t-24 -76q-1 -20 -12.5 -30.5t-30.5 -10.5h-83q-43 0 -40 43z" />
<glyph unicode="&#xf2;" horiz-adv-x="1307" d="M66 530q0 159 76.5 284t210 195t300.5 70q166 0 300.5 -70t211 -195t76.5 -284t-76.5 -284.5t-211 -195.5t-300.5 -70q-167 0 -300.5 70t-210 195.5t-76.5 284.5zM341 1449q0 18 19 30l92 64q15 10 26 10q17 0 30 -19l209 -298q10 -15 10 -25q0 -11 -9 -17.5t-26 -6.5 h-108q-34 0 -51 23l-181 211q-11 14 -11 28zM376 530q0 -82 36.5 -144.5t99.5 -96.5t140 -34q76 0 139.5 34.5t100.5 97t37 143.5q0 80 -37 143t-100.5 98t-139.5 35q-77 0 -140 -34.5t-99.5 -97t-36.5 -144.5z" />
<glyph unicode="&#xf3;" horiz-adv-x="1307" d="M66 530q0 159 76.5 284t210 195t300.5 70q166 0 300.5 -70t211 -195t76.5 -284t-76.5 -284.5t-211 -195.5t-300.5 -70q-167 0 -300.5 70t-210 195.5t-76.5 284.5zM376 530q0 -82 36.5 -144.5t99.5 -96.5t140 -34q76 0 139.5 34.5t100.5 97t37 143.5q0 80 -37 143 t-100.5 98t-139.5 35q-77 0 -140 -34.5t-99.5 -97t-36.5 -144.5zM835 1211q0 10 10 25l209 298q13 19 30 19q11 0 26 -10l92 -64q19 -12 19 -30q0 -14 -11 -28l-181 -211q-17 -23 -51 -23h-108q-17 0 -26 6.5t-9 17.5z" />
<glyph unicode="&#xf4;" horiz-adv-x="1307" d="M66 530q0 159 76.5 284t210 195t300.5 70q166 0 300.5 -70t211 -195t76.5 -284t-76.5 -284.5t-211 -195.5t-300.5 -70q-167 0 -300.5 70t-210 195.5t-76.5 284.5zM351 1258q0 12 10 25l174 226q19 25 50 25h136q31 0 50 -25l174 -226q10 -13 10 -25q0 -11 -9 -17.5 t-26 -6.5h-105q-32 0 -49 26l-84 120q-12 18 -29 18q-16 0 -28 -18l-85 -120q-17 -26 -49 -26h-105q-17 0 -26 6.5t-9 17.5zM376 530q0 -82 36.5 -144.5t99.5 -96.5t140 -34q76 0 139.5 34.5t100.5 97t37 143.5q0 80 -37 143t-100.5 98t-139.5 35q-77 0 -140 -34.5 t-99.5 -97t-36.5 -144.5z" />
<glyph unicode="&#xf5;" horiz-adv-x="1307" d="M66 530q0 159 76.5 284t210 195t300.5 70q166 0 300.5 -70t211 -195t76.5 -284t-76.5 -284.5t-211 -195.5t-300.5 -70q-167 0 -300.5 70t-210 195.5t-76.5 284.5zM285 1282q10 119 71.5 191.5t160.5 72.5q66 0 117.5 -32.5t85.5 -85.5q13 -20 27 -30.5t35 -10.5 q31 0 48.5 27t21.5 77q1 20 12.5 30.5t30.5 10.5h85q20 0 30 -12t9 -35q-10 -117 -70.5 -188.5t-162.5 -71.5q-65 0 -114.5 30t-87.5 88q-14 22 -28 31.5t-32 9.5q-31 0 -49 -28t-24 -76q-1 -20 -12.5 -30.5t-30.5 -10.5h-83q-43 0 -40 43zM376 530q0 -82 36.5 -144.5 t99.5 -96.5t140 -34q76 0 139.5 34.5t100.5 97t37 143.5q0 80 -37 143t-100.5 98t-139.5 35q-77 0 -140 -34.5t-99.5 -97t-36.5 -144.5z" />
<glyph unicode="&#xf6;" horiz-adv-x="1307" d="M66 530q0 159 76.5 284t210 195t300.5 70q166 0 300.5 -70t211 -195t76.5 -284t-76.5 -284.5t-211 -195.5t-300.5 -70q-167 0 -300.5 70t-210 195.5t-76.5 284.5zM281 1400q0 42 21 77.5t57 56t78 20.5q41 0 77 -20.5t57 -56t21 -77.5t-21 -77.5t-57 -56.5t-77 -21 q-42 0 -78 21t-57 56.5t-21 77.5zM376 530q0 -82 36.5 -144.5t99.5 -96.5t140 -34q76 0 139.5 34.5t100.5 97t37 143.5q0 80 -37 143t-100.5 98t-139.5 35q-77 0 -140 -34.5t-99.5 -97t-36.5 -144.5zM715 1400q0 42 21 77.5t57 56t78 20.5t77.5 -20.5t56 -56t20.5 -77.5 t-20.5 -77.5t-56 -56.5t-77.5 -21t-78 21t-57 56.5t-21 77.5z" />
<glyph unicode="&#xf7;" horiz-adv-x="1146" d="M116 622v166q0 41 41 41h833q20 0 30.5 -10.5t10.5 -30.5v-166q0 -19 -10.5 -30t-30.5 -11h-833q-20 0 -30.5 10.5t-10.5 30.5zM401 323q0 42 23 79.5t60.5 60.5t79.5 23q43 0 80.5 -22.5t60.5 -60.5t23 -80q0 -45 -22.5 -83t-60.5 -59.5t-81 -21.5t-80.5 21.5t-60 59.5 t-22.5 83zM401 1088q0 43 22.5 80.5t60.5 60t80 22.5q43 0 80.5 -22.5t60.5 -60t23 -80.5q0 -45 -22.5 -82.5t-60.5 -59t-81 -21.5t-80.5 21.5t-60 59t-22.5 82.5z" />
<glyph unicode="&#xf8;" horiz-adv-x="1307" d="M66 530q0 159 76.5 284t210 195t300.5 70q118 0 221 -36q16 -4 21 -4q20 0 35 20l34 49q14 21 32 21q13 0 25 -9l59 -34q20 -14 20 -32q0 -11 -8 -25l-30 -43q-9 -15 -9 -27q0 -16 17 -30q81 -74 126 -176.5t45 -222.5q0 -159 -76.5 -284.5t-211 -195.5t-300.5 -70 q-120 0 -222 37q-10 3 -18 3q-22 0 -37 -21l-36 -50q-14 -20 -32 -20q-11 0 -25 8l-59 34q-21 13 -21 33q0 12 9 25l31 44q9 14 9 26q0 16 -17 31q-81 76 -125 177.5t-44 222.5zM376 530q0 -73 33 -133q9 -20 26 -20t31 19l247 352q12 17 12 30q0 18 -18 22q-27 6 -55 6 q-77 0 -140 -34.5t-99.5 -97t-36.5 -144.5zM583 288q0 -11 8 -19t22 -10q16 -4 39 -4q76 0 139.5 34.5t100.5 97t37 143.5q0 74 -34 133q-10 20 -27 20t-31 -19l-245 -351q-9 -12 -9 -25z" />
<glyph unicode="&#xf9;" horiz-adv-x="1271" d="M125 401v617q0 20 10.5 30.5t30.5 10.5h244q20 0 30.5 -10.5t10.5 -30.5v-594q0 -84 50.5 -127.5t132.5 -43.5t133 43.5t51 127.5v594q0 20 10.5 30.5t30.5 10.5h246q20 0 30.5 -10.5t10.5 -30.5v-617q0 -129 -60 -224t-175 -146t-277 -51q-161 0 -275.5 51t-174 145.5 t-59.5 224.5zM323 1451q0 18 19 30l92 64q15 10 26 10q17 0 30 -19l209 -298q10 -15 10 -25q0 -11 -9 -17.5t-26 -6.5h-108q-34 0 -51 23l-181 211q-11 14 -11 28z" />
<glyph unicode="&#xfa;" horiz-adv-x="1271" d="M125 401v617q0 20 10.5 30.5t30.5 10.5h244q20 0 30.5 -10.5t10.5 -30.5v-594q0 -84 50.5 -127.5t132.5 -43.5t133 43.5t51 127.5v594q0 20 10.5 30.5t30.5 10.5h246q20 0 30.5 -10.5t10.5 -30.5v-617q0 -129 -60 -224t-175 -146t-277 -51q-161 0 -275.5 51t-174 145.5 t-59.5 224.5zM817 1213q0 10 10 25l209 298q13 19 30 19q11 0 26 -10l92 -64q19 -12 19 -30q0 -14 -11 -28l-181 -211q-17 -23 -51 -23h-108q-17 0 -26 6.5t-9 17.5z" />
<glyph unicode="&#xfb;" horiz-adv-x="1271" d="M125 401v617q0 20 10.5 30.5t30.5 10.5h244q20 0 30.5 -10.5t10.5 -30.5v-594q0 -84 50.5 -127.5t132.5 -43.5t133 43.5t51 127.5v594q0 20 10.5 30.5t30.5 10.5h246q20 0 30.5 -10.5t10.5 -30.5v-617q0 -129 -60 -224t-175 -146t-277 -51q-161 0 -275.5 51t-174 145.5 t-59.5 224.5zM333 1260q0 12 10 25l174 226q19 25 50 25h136q31 0 50 -25l174 -226q10 -13 10 -25q0 -11 -9 -17.5t-26 -6.5h-105q-32 0 -49 26l-84 120q-12 18 -29 18q-16 0 -28 -18l-85 -120q-17 -26 -49 -26h-105q-17 0 -26 6.5t-9 17.5z" />
<glyph unicode="&#xfc;" horiz-adv-x="1271" d="M125 401v617q0 20 10.5 30.5t30.5 10.5h244q20 0 30.5 -10.5t10.5 -30.5v-594q0 -84 50.5 -127.5t132.5 -43.5t133 43.5t51 127.5v594q0 20 10.5 30.5t30.5 10.5h246q20 0 30.5 -10.5t10.5 -30.5v-617q0 -129 -60 -224t-175 -146t-277 -51q-161 0 -275.5 51t-174 145.5 t-59.5 224.5zM263 1402q0 42 21 77.5t57 56t78 20.5q41 0 77 -20.5t57 -56t21 -77.5t-21 -77.5t-57 -56.5t-77 -21q-42 0 -78 21t-57 56.5t-21 77.5zM697 1402q0 42 21 77.5t57 56t78 20.5t77.5 -20.5t56 -56t20.5 -77.5t-20.5 -77.5t-56 -56.5t-77.5 -21t-78 21t-57 56.5 t-21 77.5z" />
<glyph unicode="&#xfd;" horiz-adv-x="1155" d="M27 1031q0 13 9.5 20.5t25.5 7.5h273q17 0 29 -9t16 -26l180 -555q4 -13 11 -20t15 -7t15.5 7t11.5 20l182 555q4 17 16 26t29 9h253q18 0 27 -7.5t9 -21.5q0 -9 -3 -18l-592 -1477q-6 -15 -18.5 -24t-28.5 -9h-248q-18 0 -27 7.5t-9 21.5q0 9 3 18l198 499q6 14 6 26 t-6 27l-373 911q-4 9 -4 19zM761 1213q0 10 10 25l209 298q13 19 30 19q11 0 26 -10l92 -64q19 -12 19 -30q0 -14 -11 -28l-181 -211q-17 -23 -51 -23h-108q-17 0 -26 6.5t-9 17.5z" />
<glyph unicode="&#xfe;" horiz-adv-x="1392" d="M156 -457v1952q0 20 10.5 30.5t30.5 10.5h245q41 0 41 -41v-493q0 -32 19 -32q12 0 28 12q53 46 123.5 71.5t156.5 25.5q139 0 256.5 -70.5t186 -196.5t68.5 -285t-68.5 -283.5t-185 -194t-257.5 -69.5q-83 0 -154.5 23.5t-125.5 69.5q-17 14 -28 14q-19 0 -19 -32v-512 q0 -20 -10.5 -30.5t-30.5 -10.5h-245q-19 0 -30 10.5t-11 30.5zM444 527q0 -77 36.5 -142t99.5 -102.5t139 -37.5t139.5 37.5t100 102.5t36.5 142t-36.5 142t-100 102.5t-139.5 37.5t-139 -37.5t-99.5 -102.5t-36.5 -142z" />
<glyph unicode="&#xff;" horiz-adv-x="1155" d="M27 1031q0 13 9.5 20.5t25.5 7.5h273q17 0 29 -9t16 -26l180 -555q4 -13 11 -20t15 -7t15.5 7t11.5 20l182 555q4 17 16 26t29 9h253q18 0 27 -7.5t9 -21.5q0 -9 -3 -18l-592 -1477q-6 -15 -18.5 -24t-28.5 -9h-248q-18 0 -27 7.5t-9 21.5q0 9 3 18l198 499q6 14 6 26 t-6 27l-373 911q-4 9 -4 19zM207 1402q0 42 21 77.5t57 56t78 20.5q41 0 77 -20.5t57 -56t21 -77.5t-21 -77.5t-57 -56.5t-77 -21q-42 0 -78 21t-57 56.5t-21 77.5zM641 1402q0 42 21 77.5t57 56t78 20.5t77.5 -20.5t56 -56t20.5 -77.5t-20.5 -77.5t-56 -56.5t-77.5 -21 t-78 21t-57 56.5t-21 77.5z" />
<glyph unicode="&#x152;" horiz-adv-x="2176" d="M90 768q0 235 89 407.5t265 266.5t430 94h1125q41 0 41 -41v-216q0 -41 -41 -41h-537q-19 0 -30 -10.5t-11 -30.5v-239q0 -20 10.5 -30.5t30.5 -10.5h451q20 0 30.5 -10.5t10.5 -30.5v-217q0 -20 -10.5 -30.5t-30.5 -10.5h-451q-20 0 -30.5 -10.5t-10.5 -29.5v-239 q0 -19 11 -30t30 -11h537q41 0 41 -41v-216q0 -41 -41 -41h-1125q-254 0 -430 94t-265 266.5t-89 407.5zM444 768q0 -470 447 -470h150q20 0 30.5 11t10.5 30v858q0 20 -10.5 30.5t-30.5 10.5h-150q-447 0 -447 -470z" />
<glyph unicode="&#x153;" horiz-adv-x="2111" d="M66 530q0 159 76.5 284t210 195t300.5 70q131 0 242.5 -45t191.5 -128q76 82 183 128.5t233 46.5q153 0 275.5 -66t194 -188t73.5 -283l-2 -29q-1 -18 -11.5 -28.5t-29.5 -10.5h-699q-18 0 -29 -9t-11 -24q0 -4 2 -12q19 -92 87 -144t162 -52q67 0 123 26t93 77 q18 23 37 23q7 0 19 -5l182 -77q13 -5 20.5 -13.5t7.5 -18.5q0 -9 -4 -16q-65 -118 -190 -184.5t-288 -66.5q-133 0 -242.5 45.5t-185.5 126.5q-80 -82 -192 -127t-242 -45q-167 0 -300.5 70t-210 195.5t-76.5 284.5zM376 530q0 -82 36.5 -144.5t99.5 -96.5t140 -34 q76 0 139.5 34.5t100.5 97t37 143.5q0 80 -37 143t-100.5 98t-139.5 35q-77 0 -140 -34.5t-99.5 -97t-36.5 -144.5zM1276 696q0 -14 10.5 -22t28.5 -8h371q18 0 28 7.5t10 21.5q0 7 -3 16q-24 66 -81 102.5t-135 36.5t-137 -36t-88 -101q-4 -8 -4 -17z" />
<glyph unicode="&#x178;" horiz-adv-x="1465" d="M49 1510q0 12 9 19t26 7h290q18 0 29.5 -6t20.5 -21l282 -449q12 -20 29 -20q16 0 28 20l282 449q9 15 20.5 21t28.5 6h287q16 0 25.5 -7t9.5 -18q0 -12 -9 -24l-489 -739q-14 -22 -14 -51v-656q0 -41 -41 -41h-258q-20 0 -30.5 10.5t-10.5 30.5v650q0 28 -14 52 l-493 744q-8 11 -8 23zM362 1879q0 42 21 77.5t57 56t78 20.5q41 0 77 -20.5t57 -56t21 -77.5t-21 -77.5t-57 -56.5t-77 -21q-42 0 -78 21t-57 56.5t-21 77.5zM796 1879q0 42 21 77.5t57 56t78 20.5t77.5 -20.5t56 -56t20.5 -77.5t-20.5 -77.5t-56 -56.5t-77.5 -21t-78 21 t-57 56.5t-21 77.5z" />
<glyph unicode="&#x2c6;" horiz-adv-x="802" d="M99 1260q0 12 10 25l174 226q19 25 50 25h136q31 0 50 -25l174 -226q10 -13 10 -25q0 -11 -9 -17.5t-26 -6.5h-105q-32 0 -49 26l-84 120q-12 18 -29 18q-16 0 -28 -18l-85 -120q-17 -26 -49 -26h-105q-17 0 -26 6.5t-9 17.5z" />
<glyph unicode="&#x2dc;" horiz-adv-x="952" d="M110 1284q10 119 71.5 191.5t160.5 72.5q66 0 117.5 -32.5t85.5 -85.5q13 -20 27 -30.5t35 -10.5q31 0 48.5 27t21.5 77q1 20 12.5 30.5t30.5 10.5h85q20 0 30 -12t9 -35q-10 -117 -70.5 -188.5t-162.5 -71.5q-65 0 -114.5 30t-87.5 88q-14 22 -28 31.5t-32 9.5 q-31 0 -49 -28t-24 -76q-1 -20 -12.5 -30.5t-30.5 -10.5h-83q-43 0 -40 43z" />
<glyph unicode="&#x2000;" horiz-adv-x="1070" />
<glyph unicode="&#x2001;" horiz-adv-x="2141" />
<glyph unicode="&#x2002;" horiz-adv-x="1070" />
<glyph unicode="&#x2003;" horiz-adv-x="2141" />
<glyph unicode="&#x2004;" horiz-adv-x="713" />
<glyph unicode="&#x2005;" horiz-adv-x="535" />
<glyph unicode="&#x2006;" horiz-adv-x="356" />
<glyph unicode="&#x2007;" horiz-adv-x="356" />
<glyph unicode="&#x2008;" horiz-adv-x="267" />
<glyph unicode="&#x2009;" horiz-adv-x="428" />
<glyph unicode="&#x200a;" horiz-adv-x="118" />
<glyph unicode="&#x2010;" horiz-adv-x="1024" d="M154 437v191q0 40 41 40h634q41 0 41 -40v-191q0 -20 -10.5 -30.5t-30.5 -10.5h-634q-20 0 -30.5 10.5t-10.5 30.5z" />
<glyph unicode="&#x2011;" horiz-adv-x="1024" d="M154 437v191q0 40 41 40h634q41 0 41 -40v-191q0 -20 -10.5 -30.5t-30.5 -10.5h-634q-20 0 -30.5 10.5t-10.5 30.5z" />
<glyph unicode="&#x2012;" horiz-adv-x="1024" d="M154 437v191q0 40 41 40h634q41 0 41 -40v-191q0 -20 -10.5 -30.5t-30.5 -10.5h-634q-20 0 -30.5 10.5t-10.5 30.5z" />
<glyph unicode="&#x2013;" horiz-adv-x="1331" d="M154 437v191q0 40 41 40h942q20 0 30.5 -10.5t10.5 -29.5v-191q0 -19 -10.5 -30t-30.5 -11h-942q-20 0 -30.5 10.5t-10.5 30.5z" />
<glyph unicode="&#x2014;" horiz-adv-x="2040" d="M-4 437v191q0 40 41 40h1966q41 0 41 -40v-191q0 -20 -10.5 -30.5t-30.5 -10.5h-1966q-20 0 -30.5 10.5t-10.5 30.5z" />
<glyph unicode="&#x2018;" horiz-adv-x="663" d="M92 900q0 8 3 17l199 586q12 33 47 33h151q19 0 29 -9.5t10 -26.5l-1 -9l-108 -584q-6 -37 -44 -37h-250q-17 0 -26.5 8t-9.5 22z" />
<glyph unicode="&#x2019;" horiz-adv-x="663" d="M132 906l1 9l108 584q6 37 43 37h251q17 0 26.5 -8t9.5 -22q0 -8 -3 -17l-199 -586q-12 -33 -47 -33h-152q-18 0 -28 9.5t-10 26.5z" />
<glyph unicode="&#x201a;" horiz-adv-x="663" d="M132 -337l1 9l108 584q6 36 43 36h251q17 0 26.5 -7.5t9.5 -21.5q0 -8 -3 -17l-199 -586q-12 -34 -47 -34h-152q-18 0 -28 10t-10 27z" />
<glyph unicode="&#x201c;" horiz-adv-x="1151" d="M92 900q0 8 3 17l199 586q12 33 47 33h151q19 0 29 -9.5t10 -26.5l-1 -9l-108 -584q-6 -37 -44 -37h-250q-17 0 -26.5 8t-9.5 22zM579 901q0 7 3 16l200 586q12 33 47 33h151q18 0 28 -9.5t10 -25.5q0 -6 -1 -10l-107 -584q-6 -37 -44 -37h-250q-17 0 -27 8t-10 23z" />
<glyph unicode="&#x201d;" horiz-adv-x="1151" d="M132 906l1 9l108 584q6 37 43 37h251q17 0 26.5 -8t9.5 -22q0 -8 -3 -17l-199 -586q-12 -33 -47 -33h-152q-18 0 -28 9.5t-10 26.5zM620 906l1 9l108 584q6 37 43 37h251q17 0 26.5 -8t9.5 -22q0 -8 -3 -17l-200 -586q-10 -33 -47 -33h-151q-18 0 -28 9.5t-10 26.5z" />
<glyph unicode="&#x201e;" horiz-adv-x="1141" d="M132 -337l1 9l108 584q6 36 43 36h251q17 0 26.5 -7.5t9.5 -21.5q0 -8 -3 -17l-199 -586q-12 -34 -47 -34h-152q-18 0 -28 10t-10 27zM611 -338q0 6 1 10l107 584q6 36 44 36h250q17 0 27 -8t10 -22q0 -7 -3 -16l-200 -586q-12 -34 -47 -34h-151q-18 0 -28 9.5t-10 26.5z " />
<glyph unicode="&#x2022;" horiz-adv-x="973" d="M141 675q0 91 47.5 170.5t127.5 127t171 47.5q90 0 169.5 -47.5t126.5 -127t47 -170.5q0 -95 -47 -173.5t-126 -124t-170 -45.5q-92 0 -171.5 45.5t-127 124t-47.5 173.5z" />
<glyph unicode="&#x2026;" horiz-adv-x="2084" d="M170 160q0 49 24.5 90.5t66 66.5t89.5 25q49 0 90.5 -25t66.5 -66.5t25 -90.5q0 -48 -25 -89.5t-66.5 -66t-90.5 -24.5q-48 0 -89.5 24.5t-66 66t-24.5 89.5zM860 160q0 49 24.5 90.5t66 66.5t89.5 25q49 0 90.5 -25t66.5 -66.5t25 -90.5q0 -48 -25 -89.5t-66.5 -66 t-90.5 -24.5q-48 0 -89.5 24.5t-66 66t-24.5 89.5zM1552 160q0 49 24.5 90.5t66 66.5t89.5 25q49 0 90.5 -25t66.5 -66.5t25 -90.5q0 -48 -25 -89.5t-66.5 -66t-90.5 -24.5q-48 0 -89.5 24.5t-66 66t-24.5 89.5z" />
<glyph unicode="&#x202f;" horiz-adv-x="428" />
<glyph unicode="&#x2039;" horiz-adv-x="685" d="M65 572q0 13 12 28l267 324q18 24 51 24h162q17 0 26.5 -6.5t9.5 -17.5q0 -12 -12 -27l-246 -297q-12 -15 -12 -28q0 -14 12 -29l246 -297q12 -15 12 -27q0 -11 -9.5 -17.5t-26.5 -6.5h-162q-33 0 -51 24l-267 324q-12 15 -12 29z" />
<glyph unicode="&#x203a;" horiz-adv-x="685" d="M93 219q0 13 11 27l246 297q12 15 12 29q0 13 -12 28l-246 297q-11 14 -11 27q0 11 9.5 17.5t26.5 6.5h161q32 0 52 -24l266 -324q12 -15 12 -28q0 -14 -12 -29l-266 -324q-19 -24 -52 -24h-161q-17 0 -26.5 6.5t-9.5 17.5z" />
<glyph unicode="&#x205f;" horiz-adv-x="535" />
<glyph unicode="&#x20ac;" horiz-adv-x="1714" d="M135 561v98q0 20 11 30.5t30 10.5h91q-2 23 -2 68q0 44 2 66h-91q-19 0 -30 11t-11 30v98q0 20 11 30.5t30 10.5h88q17 0 28 8t17 27q51 149 152 264t238 179t293 64q182 0 335.5 -81.5t253.5 -222.5q10 -13 10 -25q0 -17 -20 -31l-215 -134q-11 -8 -24 -8q-19 0 -32 22 q-52 84 -132.5 129t-175.5 45q-97 0 -178.5 -49.5t-133.5 -137.5q-8 -13 -8 -22q0 -13 10 -20t27 -7h326q20 0 30.5 -10.5t10.5 -30.5v-98q0 -19 -10.5 -30t-30.5 -11h-430q-3 -31 -3 -66q0 -36 3 -68h430q20 0 30.5 -10.5t10.5 -30.5v-98q0 -19 -10.5 -30t-30.5 -11h-325 q-17 0 -27 -7.5t-10 -19.5q0 -9 8 -22q52 -87 133.5 -136t177.5 -49q95 0 175.5 45t132.5 129q13 22 32 22q13 0 24 -8l215 -134q20 -14 20 -31q0 -12 -10 -25q-100 -141 -253.5 -222.5t-335.5 -81.5q-156 0 -292.5 64t-237 178t-152.5 263q-7 19 -17.5 27t-27.5 8h-89 q-19 0 -30 11t-11 30z" />
<glyph unicode="&#x2122;" horiz-adv-x="1762" d="M112 1440v55q0 41 41 41h416q40 0 40 -41v-55q0 -20 -10.5 -30.5t-29.5 -10.5h-80q-40 0 -40 -41v-497q0 -19 -10.5 -30t-30.5 -11h-76q-19 0 -30 11t-11 30v497q0 41 -41 41h-97q-20 0 -30.5 10.5t-10.5 30.5zM737 861v634q0 41 41 41h98q32 0 50 -27l179 -269 q12 -19 29 -19q16 0 28 19l182 269q17 27 49 27h95q41 0 41 -41v-634q0 -20 -10.5 -30.5t-30.5 -10.5h-73q-20 0 -30.5 10.5t-10.5 30.5v342q0 17 -6 26t-15 9q-15 0 -28 -20l-163 -238q-12 -18 -28 -18q-17 0 -29 18l-162 239q-13 19 -27 19q-10 0 -16 -9.5t-6 -25.5v-342 q0 -20 -10.5 -30.5t-30.5 -10.5h-75q-20 0 -30.5 10.5t-10.5 30.5z" />
<glyph unicode="&#x25fc;" horiz-adv-x="1060" d="M0 0v1060h1060v-1060h-1060z" />
</font>
</defs>
</svg>
