<svg id="Layer_1" data-name="Layer 1" xmlns="http://www.w3.org/2000/svg" viewBox="0 0 200 200"><defs><style>.cls-1{fill:#28394f;}.cls-2{fill:none;stroke:#28394f;stroke-miterlimit:10;stroke-width:10px;}</style></defs><title>Artboard 1</title><path class="cls-1" d="M82.62,105.39s-4.18-.8-3.09-13.73S80.27,73,80.27,73s-3.09,17.91-4.4,16.88-.12-40.4,6.21-47.42c0,0,2.06.23,5,14.57,0,0,2.43-11.49-2.91-18a3.49,3.49,0,0,0-5.46.25c-2,2.69-4.59,8.47-6.65,20.83-4,23.72-3.74,75.81,0,78.71,0,0,1.29-.16,2.06-7.48,0,0,0-16.63,2,14.49,0,0,2.14,19.37,6.56,16.93,0,0,4.12-5.49,3.2-16.78,0,0-2.56,10.83-3.63,8.59s-3.16-15.14-.94-35.89c0,0,2.33,14,2.17,24.71h6.52"/><path class="cls-1" d="M68,58.77s5.64-44.54,13.57-42.71c0,0,5.64,1.76,10.45,38.59a5.62,5.62,0,0,0,.45,1.69c.46.38,1.29-.54,1-2.15,0,0-2.41-45.53-11.9-46.44s-18,36.38-17.73,57.12c0,0-.17,4.77,1.14,5.11S67.46,65.81,68,58.77Z"/><path class="cls-1" d="M82.62,182.21s6.63-2.87,9.61-41.19c0,0,0-2.62,1.37-2.39s.86,5.2.86,5.2-.63,39.64-12.41,45.93c0,0-8.58,4.28-16.82-51.15,0,0-.46-4.6-2.06-4.51s-.72,6.74-.72,6.74l.46,4.89s-2.44-1.67-4-8.22-6.7-24-2.13-44.19c0,0,1.76,1.15,1.83,10.15,0,0,.16,3.58,1.83,3.58,1.4,0,1.16-5.41,1-7.25a9.55,9.55,0,0,1,0-1.31l1.25-19.81s.06-3.13,1.14-3.28,1.84,1.3,2.22,5.11c.3,3-.06,19.45-.23,26.55a63.18,63.18,0,0,0,.22,6.88C67.32,128.09,72.51,179.09,82.62,182.21Z"/><path class="cls-1" d="M76.67,91.82l4.86-11.35C80.44,93.4,84.62,94.2,84.62,94.2L98.35,50.5h21.5L145.71,132H124.2L108.42,79.67,91.94,132.18H85.42c.16-10.68-2.17-24.71-2.17-24.71"/><line class="cls-2" x1="123.78" y1="103.39" x2="93.54" y2="114.45"/><polygon class="cls-1" points="85.37 103.39 85.83 112.56 78.69 112.87 77.44 95.4 85.37 103.39"/></svg>