<svg id="Layer_1" data-name="Layer 1" xmlns="http://www.w3.org/2000/svg" viewBox="0 0 200 200"><defs><style>.cls-1,.cls-3{fill:#28394f;}.cls-2{fill:none;stroke:#28394f;stroke-miterlimit:10;stroke-width:6px;}.cls-3{font-size:12px;font-family:MyriadPro-Regular, Myriad Pro;}.cls-4{letter-spacing:-0.01em;}</style></defs><title>Artboard 1</title><path class="cls-1" d="M48.31,98s-1.42-.28-1.05-4.66A49.67,49.67,0,0,0,47.51,87s-1,6.08-1.49,5.73,0-13.71,2.11-16.09c0,0,.69.08,1.68,4.94,0,0,.82-3.89-1-6.11a1.19,1.19,0,0,0-1.85.08c-.68.92-1.56,2.87-2.26,7.07-1.34,8-1.27,25.72,0,26.7,0,0,.44,0,.7-2.54,0,0,0-5.64.67,4.92,0,0,.73,6.57,2.23,5.74,0,0,1.39-1.86,1.08-5.69,0,0-.86,3.67-1.23,2.91s-1.07-5.13-.32-12.17a57.54,57.54,0,0,1,.74,8.38h2.21"/><path class="cls-1" d="M43.34,82.21s1.91-15.11,4.6-14.49c0,0,1.92.6,3.55,13.1a1.93,1.93,0,0,0,.15.57c.16.12.44-.19.35-.73,0,0-.81-15.45-4-15.76s-6.12,12.34-6,19.38c0,0-.06,1.62.39,1.74S43.16,84.6,43.34,82.21Z"/><path class="cls-1" d="M48.31,124.09s2.25-1,3.26-14c0,0,0-.9.46-.82s.29,1.77.29,1.77-.21,13.44-4.21,15.58c0,0-2.91,1.45-5.7-17.35,0,0-.16-1.56-.7-1.53s-.25,2.28-.25,2.28l.16,1.66s-.83-.56-1.36-2.79-2.28-8.16-.72-15c0,0,.59.39.62,3.44,0,0,.05,1.22.62,1.22s.39-1.84.35-2.46a3.23,3.23,0,0,1,0-.44L41.55,89s0-1.07.39-1.12.62.44.75,1.74c.1,1,0,6.59-.07,9a20.26,20.26,0,0,0,.07,2.34C43.12,105.73,44.88,123,48.31,124.09Z"/><path class="cls-1" d="M46.29,93.42l1.65-3.85C47.57,94,49,94.23,49,94.23l4.65-14.82h7.3L69.71,107h-7.3L57.06,89.3l-5.59,17.82H49.26a57.58,57.58,0,0,0-.74-8.39"/><line class="cls-2" x1="61.27" y1="97.35" x2="51.01" y2="101.1"/><polygon class="cls-1" points="49.24 97.35 49.4 100.46 46.98 100.56 46.55 94.64 49.24 97.35"/><text class="cls-3" transform="translate(69.5 107.02)"><tspan class="cls-4">v</tspan><tspan x="5.65" y="0">endoo</tspan></text></svg>